<?xml version="1.0" encoding="UTF-8"?>
<svg width="24px" height="24px" viewBox="0 0 24 24" version="1.1" xmlns="http://www.w3.org/2000/svg" xmlns:xlink="http://www.w3.org/1999/xlink">
    <title>support_agent_black_24dp</title>
    <g id="Page-1" stroke="none" stroke-width="1" fill="none" fill-rule="evenodd">
        <g id="Artboard" transform="translate(-119.000000, -1566.000000)">
            <g id="support_agent_black_24dp" transform="translate(119.000000, 1566.000000)">
                <rect id="Rectangle" x="0" y="0" width="24" height="24"></rect>
                <g id="Group" transform="translate(2.000000, 3.000000)" fill="#757575" fill-rule="nonzero">
                    <path d="M19,9.22 C19,3.73 14.74,0 10,0 C5.31,0 1,3.65 1,9.28 C0.4,9.62 0,10.26 0,11 L0,13 C0,14.1 0.9,15 2,15 L3,15 L3,8.9 C3,5.03 6.13,1.9 10,1.9 C13.87,1.9 17,5.03 17,8.9 L17,16 L9,16 L9,18 L17,18 C18.1,18 19,17.1 19,16 L19,14.78 C19.59,14.47 20,13.86 20,13.14 L20,10.84 C20,10.14 19.59,9.53 19,9.22 Z" id="Path"></path>
                    <circle id="Oval" cx="7" cy="10" r="1"></circle>
                    <circle id="Oval" cx="13" cy="10" r="1"></circle>
                    <path d="M16,8.03 C15.52,5.18 13.04,3 10.05,3 C7.02,3 3.76,5.51 4.02,9.45 C6.49,8.44 8.35,6.24 8.88,3.56 C10.19,6.19 12.88,8 16,8.03 Z" id="Path"></path>
                </g>
            </g>
        </g>
    </g>
</svg>