<svg xmlns="http://www.w3.org/2000/svg" width="24.2" height="22.204" viewBox="0 0 24.2 22.204"><defs><style>.a{fill:#0070e0;stroke:#0070e0;stroke-width:0.2px;}</style></defs><g transform="translate(-0.429 -282.491)"><path class="a" d="M13.328,294.2v9.6h-1.2v-12a.4.4,0,0,0-.4-.4H8.53a.4.4,0,0,0-.4.4v12H6.93v-7.6a.4.4,0,0,0-.4-.4h-3.2a.4.4,0,0,0-.4.4v7.6h-1.6V283a.4.4,0,1,0-.8,0v21.2a.4.4,0,0,0,.4.4h23.2a.4.4,0,1,0,0-.8h-1.6V292.2a.4.4,0,1,0-.8,0v11.6h-2.4V289.4h2.4v1.2a.4.4,0,1,0,.8,0V289a.4.4,0,0,0-.4-.4H18.908a.4.4,0,0,0-.381.4v14.8h-1.2v-9.6a.4.4,0,0,0-.4-.4H13.709a.4.4,0,0,0-.381.4Zm-4.4-2h2.4v11.6h-2.4Zm5.2,2.4h2.4v9.2h-2.4Zm-10.4,2h2.4v7.2h-2.4Z"/></g></svg>