<?xml version="1.0" encoding="UTF-8"?>
<svg width="26px" height="20px" viewBox="0 0 26 20" version="1.1" xmlns="http://www.w3.org/2000/svg" xmlns:xlink="http://www.w3.org/1999/xlink">
    <title>Group 9</title>
    <g id="Page-1" stroke="none" stroke-width="1" fill="none" fill-rule="evenodd">
        <g id="Group-9" transform="translate(1.000000, 1.000000)">
            <path d="M22.5728,18 L1.4268,18 C0.6388,18 -0.0002,17.361 -0.0002,16.573 L-0.0002,1.427 C-0.0002,0.639 0.6388,0 1.4268,0 L22.5728,0 C23.3608,0 23.9998,0.639 23.9998,1.427 L23.9998,16.573 C23.9998,17.361 23.3608,18 22.5728,18 Z" id="Stroke-1" stroke="#707070" stroke-width="2"></path>
            <line x1="0" y1="4.7796" x2="24" y2="4.7796" id="Stroke-3" stroke="#707070" stroke-width="2"></line>
            <path d="M10.7503,13.7149 C10.8723,13.7149 10.9953,13.6789 11.1023,13.6069 L16.6153,9.8629 C16.9023,9.6679 16.9773,9.2759 16.7823,8.9899 C16.5883,8.7029 16.1973,8.6279 15.9103,8.8239 L10.8523,12.2579 L9.0263,10.2099 C8.7953,9.9499 8.3983,9.9259 8.1403,10.1589 C7.8813,10.3889 7.8583,10.7869 8.0903,11.0449 L10.2813,13.5039 C10.4043,13.6429 10.5763,13.7149 10.7503,13.7149 Z" id="Fill-5" fill="#707070"></path>
            <path d="M10.7503,13.7149 C10.8723,13.7149 10.9953,13.6789 11.1023,13.6069 L16.6153,9.8629 C16.9023,9.6679 16.9773,9.2759 16.7823,8.9899 C16.5883,8.7029 16.1973,8.6279 15.9103,8.8239 L10.8523,12.2579 L9.0263,10.2099 C8.7953,9.9499 8.3983,9.9259 8.1403,10.1589 C7.8813,10.3889 7.8583,10.7869 8.0903,11.0449 L10.2813,13.5039 C10.4043,13.6429 10.5763,13.7149 10.7503,13.7149 L10.7503,13.7149 Z" id="Stroke-7" stroke="#707070" stroke-width="0.5"></path>
        </g>
    </g>
</svg>