<?xml version="1.0" encoding="UTF-8"?>
<svg width="24px" height="20px" viewBox="0 0 24 20" version="1.1" xmlns="http://www.w3.org/2000/svg" xmlns:xlink="http://www.w3.org/1999/xlink">
    <title>Group 6</title>
    <defs>
        <polygon id="path-1" points="0.0003 0.6355 24 0.6355 24 5.9995 0.0003 5.9995"></polygon>
    </defs>
    <g id="Page-1" stroke="none" stroke-width="1" fill="none" fill-rule="evenodd">
        <g id="Group-6">
            <path d="M4.7582,5.5126 L4.4042,5.8596 C4.0352,6.2206 4.0352,6.8096 4.4042,7.1706 L10.4872,13.1366 C10.6262,13.2726 10.8682,13.2726 11.0062,13.1366 L21.3112,3.0326 C21.5962,2.7536 21.6102,2.3096 21.3532,2.0176 L20.7132,1.3866 C20.4182,1.0976 19.9372,1.0976 19.6412,1.3866 L10.7472,10.1066 L6.0772,5.5276 C5.8992,5.3526 5.6622,5.2556 5.4102,5.2556 L5.4102,5.2556 C5.1652,5.2556 4.9342,5.3466 4.7582,5.5126 M10.7472,14.4116 C10.3302,14.4116 9.9382,14.2526 9.6432,13.9636 L3.5602,7.9976 C2.7262,7.1796 2.7262,5.8496 3.5602,5.0326 L3.8312,4.7666 L3.9522,4.5286 L4.0972,4.5276 C4.9352,3.8856 6.1512,3.9446 6.9222,4.6996 L10.7472,8.4506 L18.7982,0.5586 C19.5592,-0.1864 20.7972,-0.1854 21.5572,0.5586 L22.1632,1.1536 C22.9222,1.9026 22.9172,3.1166 22.1532,3.8616 L11.8502,13.9636 C11.5552,14.2526 11.1642,14.4116 10.7472,14.4116" id="Fill-1" fill="#000000"></path>
            <g id="Group-5" transform="translate(0.000000, 14.000000)">
                <mask id="mask-2" fill="white">
                    <use xlink:href="#path-1"></use>
                </mask>
                <g id="Clip-4"></g>
                <path d="M1.7343,1.8065 C1.4363,1.8065 1.1933,2.0435 1.1933,2.3365 L1.1933,4.2985 C1.1933,4.5905 1.4363,4.8295 1.7343,4.8295 L22.2653,4.8295 C22.5643,4.8295 22.8063,4.5905 22.8063,4.2985 L22.8063,2.3365 C22.8063,2.0435 22.5643,1.8065 22.2653,1.8065 L1.7343,1.8065 Z M22.2653,5.9995 L1.7343,5.9995 C0.7783,5.9995 0.0003,5.2375 0.0003,4.2985 L0.0003,2.3365 C0.0003,1.3985 0.7783,0.6355 1.7343,0.6355 L22.2653,0.6355 C23.2213,0.6355 24.0003,1.3985 24.0003,2.3365 L24.0003,4.2985 C24.0003,5.2375 23.2213,5.9995 22.2653,5.9995 L22.2653,5.9995 Z" id="Fill-3" fill="#000000" mask="url(#mask-2)"></path>
            </g>
        </g>
    </g>
</svg>