<svg xmlns="http://www.w3.org/2000/svg" viewBox="0 0 33.49 32.54"><defs><style>.cls-1{fill:none;}.cls-1,.cls-2{stroke:#000;stroke-miterlimit:10;}.cls-2{fill:#fff;}</style></defs><g id="Layer_2" data-name="Layer 2"><g id="Layer_2-2" data-name="Layer 2"><path class="cls-1" d="M24.37,22.63l4.68-2.89s2.09-1.26,3.37,0,0,3.07,0,3.07c-2.13,1.63-4.56,3-6.79,4.46S21.4,30.44,19,31.45c-2.24.94-4.06.59-6.31.09L3.36,29.47v-9.2l3.33-.79s2.28-.86,3.42-.3,7.19,2.26,7.19,2.26S19.9,20,22,18.66a2,2,0,0,1,3,.75"/><path class="cls-1" d="M29.52,19.51a2.05,2.05,0,0,0-3.22-.91C24,20,22.62,20.82,22.62,20.82"/><path class="cls-1" d="M17.3,21.44s5.79,1,4.6,3.74-5.56,1.44-5.56,1.44L12,25.68"/><polyline class="cls-1" points="3.36 20.75 3.36 18.23 0.5 18.23 0.5 30.96 3.36 30.96 3.36 29.54"/><path class="cls-2" d="M24.2,6.9h-1a6.57,6.57,0,0,0-.74-1.79l.74-.74a.55.55,0,0,0,0-.77L21.65,2.08a.55.55,0,0,0-.77,0l-.73.74a6.63,6.63,0,0,0-1.78-.74V1A.55.55,0,0,0,17.82.5H15.67a.54.54,0,0,0-.54.54v1a6.63,6.63,0,0,0-1.78.74l-.73-.74a.55.55,0,0,0-.77,0L10.33,3.6a.55.55,0,0,0,0,.77l.73.74a6.74,6.74,0,0,0-.73,1.77h-1a.55.55,0,0,0-.54.55V9.58a.54.54,0,0,0,.54.54h1a7,7,0,0,0,.73,1.78l-.73.73a.55.55,0,0,0,0,.77l1.52,1.52a.55.55,0,0,0,.77,0l.73-.73a7,7,0,0,0,1.78.73v1a.55.55,0,0,0,.54.55h2.15a.55.55,0,0,0,.55-.55v-1a6.33,6.33,0,0,0,1.76-.72l.74.73a.52.52,0,0,0,.76,0l1.52-1.51a.53.53,0,0,0,0-.77l-.73-.73a6.59,6.59,0,0,0,.75-1.79h1a.54.54,0,0,0,.54-.54V7.44A.54.54,0,0,0,24.2,6.9Z"/><circle class="cls-1" cx="16.74" cy="8.52" r="3.4"/></g></g></svg>