<?xml version="1.0" encoding="UTF-8"?>
<svg width="20px" height="20px" viewBox="0 0 20 20" version="1.1" xmlns="http://www.w3.org/2000/svg" xmlns:xlink="http://www.w3.org/1999/xlink">
    <title>Action Required</title>
    <g id="Page-1" stroke="none" stroke-width="1" fill="none" fill-rule="evenodd">
        <g id="Action-Required" stroke="#707070">
            <path d="M10.6,18.44 C6.65716446,18.9199542 2.86589919,16.7584888 1.27045179,13.1210645 C-0.324995607,9.48364016 0.652663504,5.23042871 3.67627601,2.6547588 C6.69988852,0.0790888823 11.0544358,-0.209949533 14.3919489,1.94349286 C17.729462,4.09693526 19.2606917,8.18361614 18.16,12" id="Path"></path>
            <path d="M10.57,15.21 C9.68584715,15.3742846 8.7757688,15.3332284 7.91,15.09 C4.82434161,14.2113331 3.03495738,10.9978883 3.91301185,7.91205561 C4.79106632,4.82622288 8.00415583,3.03620087 11.0901628,3.91364284 C14.1761697,4.7910848 15.9668294,8.00381896 15.09,11.09" id="Path" stroke-width="0.75"></path>
            <polyline id="Path" points="13.5 18.73 13.09 13.33 18.76 14.7"></polyline>
        </g>
    </g>
</svg>