<?xml version="1.0" encoding="UTF-8"?>
<svg width="18px" height="18px" viewBox="0 0 18 18" version="1.1" xmlns="http://www.w3.org/2000/svg" xmlns:xlink="http://www.w3.org/1999/xlink">
    <title>Amend</title>
    <g id="Page-1" stroke="none" stroke-width="1" fill="none" fill-rule="evenodd">
        <g id="Amend" transform="translate(1.000000, 1.000000)" fill="#737274" fill-rule="nonzero">
            <path d="M10.64,4.69 C10.5279991,4.68839522 10.4199973,4.73159593 10.34,4.81 L9.53,5.62 C9.53,5.62 9.53,5.62 9.53,5.7 L11.15,7.33 C11.15,7.33 11.15,7.33 11.23,7.33 L12.02,6.53 C12.1049114,6.44718974 12.1527949,6.33360646 12.1527949,6.215 C12.1527949,6.09639354 12.1049114,5.98281026 12.02,5.9 L12.02,5.9 L11,4.82 C10.9142692,4.73674528 10.7995036,4.69012175 10.68,4.69" id="Path_17"></path>
            <g id="Group_63">
                <path d="M6.1,12.34 L6.1,12.29 C7.52,10.86 8.89,9.42 10.26,8 C10.31,8 10.31,7.94 10.26,7.89 L8.93,6.49 C8.93,6.49 8.87,6.49 8.83,6.49 L4.71,10.79 L4.71,10.84 L4.71,12.28 C4.71,12.28 4.71,12.33 4.71,12.33 L6.1,12.33" id="Path_16"></path>
                <path d="M8.13,16.12 C4.37295657,16.124602 1.11890143,13.5141884 0.308517973,9.8455817 C-0.501865489,6.17697499 1.34979047,2.43872617 4.75917821,0.860286506 C8.16856595,-0.71815316 12.2169842,0.288546221 14.49,3.28 C14.5372103,3.34203857 14.5574544,3.42047232 14.546166,3.49760966 C14.5348776,3.57474699 14.4930075,3.64409086 14.43,3.69 C14.3773351,3.7437509 14.3052513,3.77404082 14.23,3.77404082 C14.1547487,3.77404082 14.0826649,3.7437509 14.03,3.69 L14.03,3.69 C11.8301041,0.810888307 7.86901226,-0.0518354976 4.67103508,1.65162217 C1.4730579,3.35507983 -0.0211020328,7.12363753 1.14074825,10.5556821 C2.30259853,13.9877267 5.77869437,16.0737034 9.35380169,15.4842683 C12.928909,14.8948332 15.5513903,11.8033719 15.55,8.18 C15.55,8.07639297 15.6052737,7.98065613 15.695,7.92885261 C15.7847263,7.8770491 15.8952737,7.8770491 15.985,7.92885261 C16.0747263,7.98065613 16.13,8.07639297 16.13,8.18 C16.13,12.598278 12.548278,16.18 8.13,16.18 L8.13,16.18" id="Path_18" stroke="#737274" stroke-width="0.75"></path>
            </g>
            <path d="M15.3417841,4.67621944 L12.2617841,4.37621944 C12.0997053,4.3553898 11.98411,4.20867261 12.0017841,4.04621944 C12.0319763,3.8977219 12.1714084,3.7975051 12.3217841,3.81621944 L14.9817841,4.07621944 L14.3317841,1.36621944 C14.2995555,1.20712816 14.3955087,1.05011383 14.5517841,1.00621944 C14.7108754,0.973990843 14.8678897,1.06994404 14.9117841,1.22621944 L15.6517841,4.31621944 C15.6735487,4.40750022 15.6513472,4.50370658 15.5917841,4.57621944 C15.5473495,4.6320215 15.4826381,4.66797228 15.4117841,4.67621944 L15.3417841,4.67621944 Z" id="Path_19" stroke="#737274" stroke-width="0.5"></path>
        </g>
    </g>
</svg>