<?xml version="1.0" encoding="UTF-8"?>
<svg width="38px" height="38px" viewBox="0 0 38 38" version="1.1" xmlns="http://www.w3.org/2000/svg" xmlns:xlink="http://www.w3.org/1999/xlink">
    <!-- Generator: Sketch 62 (91390) - https://sketch.com -->
    <title>beneficiary</title>
    <desc>Created with Sketch.</desc>
    <g id="Page-1" stroke="none" stroke-width="1" fill="none" fill-rule="evenodd">
        <g id="beneficiary">
            <circle id="Oval" stroke="#000000" stroke-width="1.5" cx="18.75" cy="18.75" r="18"></circle>
            <ellipse id="Oval" fill="#000000" fill-rule="nonzero" cx="18.24" cy="12.13" rx="5.53" ry="5.57"></ellipse>
            <path d="M8.24997308,28.94 L28.2500068,28.94 L28.2500068,28.05 C28.255565,23.8201246 24.8398217,20.382027 20.61,20.36 L15.88,20.36 C11.6517909,20.3820364 8.23891711,23.821748 8.24997308,28.05 L8.24997308,28.94 Z" id="Path" fill="#000000" fill-rule="nonzero"></path>
            <path d="M30.76,22.26 C30.76,22.26 29.52,22.85 26.4,21.07 C23.27,22.85 22,22.26 22,22.26 C22,22.26 20.83,28.93 26.36,30.65 C31.92,28.93 30.76,22.26 30.76,22.26 Z" id="Path" fill="#000000" fill-rule="nonzero"></path>
            <path d="M26.4,31.09 L26.27,31.09 C20.46,29.28 21.61,22.29 21.62,22.22 L21.72,21.68 L22.22,21.91 L22.22,21.91 C22.22,21.91 23.37,22.35 26.22,20.74 L26.43,20.63 L26.63,20.74 C29.46,22.35 30.63,21.91 30.63,21.91 L31.11,21.72 L31.21,22.22 C31.21,22.29 32.37,29.28 26.56,31.09 L26.4,31.09 Z M22.4,22.76 C22.26,24.21 22.16,28.76 26.4,30.21 C30.59,28.81 30.52,24.21 30.4,22.76 C28.9770673,22.7562511 27.586428,22.3355827 26.4,21.55 C25.2094774,22.3347827 23.8159053,22.755287 22.39,22.76 L22.4,22.76 Z" id="Shape" fill="#FFFFFF" fill-rule="nonzero"></path>
            <path d="M25.87,27.47 L24.36,25.72 C24.2468607,25.5639943 24.2724124,25.3472687 24.4187309,25.2218528 C24.5650495,25.0964368 24.7831333,25.104332 24.92,25.24 L25.92,26.4 L27.92,24.52 C27.9879051,24.4490945 28.0818231,24.408998 28.18,24.408998 C28.2781769,24.408998 28.3720949,24.4490945 28.44,24.52 C28.5823348,24.6641134 28.5823348,24.8958866 28.44,25.04 L25.87,27.47 Z" id="Path" fill="#FFFFFF" fill-rule="nonzero"></path>
        </g>
    </g>
</svg>