<?xml version="1.0" encoding="UTF-8"?>
<svg width="18px" height="18px" viewBox="0 0 18 18" version="1.1" xmlns="http://www.w3.org/2000/svg" xmlns:xlink="http://www.w3.org/1999/xlink">
    <title>Drawdown</title>
    <g id="Page-1" stroke="none" stroke-width="1" fill="none" fill-rule="evenodd">
        <g id="Drawdown" fill="#707070" fill-rule="nonzero">
            <g id="Group">
                <path d="M14.6285714,10.9285714 L11.0857143,10.9285714 L11.0857143,9.42857145 L14.6285714,9.42857145 C15.0703992,9.42857145 15.4285714,9.10621647 15.4285714,8.70857143 L15.4285714,2.26285714 C15.431153,2.07119845 15.3476967,1.8867106 15.1971044,1.75117748 C15.046512,1.61564436 14.8415255,1.54053375 14.6285714,1.54285714 L2.51428571,1.54285714 C2.30133161,1.54053375 2.09634511,1.61564436 1.94575275,1.75117748 C1.7951604,1.8867106 1.71170417,2.07119845 1.71428571,2.26285714 L1.71428571,8.66571429 C1.71428571,9.06335928 2.07245791,9.38571426 2.51428571,9.38571426 L6.73333333,9.38571426 L6.73333333,10.9285714 L2.51428571,10.9285714 C1.12568406,10.9285714 0,9.91545579 0,8.66571429 L0,2.26285714 C0,1.01311565 1.12568406,0 2.51428571,0 L14.6285714,0 C16.0171731,0 17.1428571,1.01311565 17.1428571,2.26285714 L17.1428571,8.66571429 C17.1428571,9.91545579 16.0171731,10.9285714 14.6285714,10.9285714 Z" id="Path"></path>
                <path d="M8.57142857,17.5971508 C8.39961834,17.5977203 8.23480895,17.5359168 8.11428571,17.4257143 L3.59047619,13.3457143 C3.39738619,13.1876308 3.33294764,12.9385948 3.42857143,12.72 C3.52293514,12.4872737 3.7724845,12.3352405 4.04761905,12.3428571 L5.95238095,12.3428571 L5.95238095,7.32 C5.95238095,7.00283075 6.23806592,6.74571429 6.59047619,6.74571429 L10.5714286,6.74571429 C10.9238388,6.74571429 11.2095238,7.00283075 11.2095238,7.32 L11.2095238,12.3428571 L13.1142857,12.3428571 C13.3750243,12.3410171 13.609953,12.4842478 13.7047619,12.7028571 C13.8132374,12.9156653 13.7596848,13.16698 13.5714286,13.3285714 L9.02857143,17.4085714 C8.909997,17.5234914 8.74556215,17.5913208 8.57142857,17.5971508 L8.57142857,17.5971508 Z M5.6,13.5171428 L8.57142857,16.2 L11.5428571,13.5171428 L10.5904762,13.5171428 C10.2328061,13.5171428 9.94285714,13.2561888 9.94285714,12.9342857 L9.94285714,7.90285714 L7.22857143,7.90285714 L7.22857143,12.9342857 C7.22857143,13.2561888 6.9386225,13.5171428 6.58095238,13.5171428 L5.6,13.5171428 Z" id="Shape"></path>
            </g>
            <rect id="Rectangle" x="2.94285714" y="3.12857143" width="11.3333333" height="1.54285714"></rect>
        </g>
    </g>
</svg>