<?xml version="1.0" encoding="UTF-8"?>
<svg width="14px" height="14px" viewBox="0 0 14 14" version="1.1" xmlns="http://www.w3.org/2000/svg" xmlns:xlink="http://www.w3.org/1999/xlink">
    <!-- Generator: Sketch 62 (91390) - https://sketch.com -->
    <title>icon/image/edit_24px</title>
    <desc>Created with Sketch.</desc>
    <defs>
        <path d="M10.5440625,6.765 L11.2340625,7.455 L4.4390625,14.25 L3.7490625,14.25 L3.7490625,13.56 L10.5440625,6.765 L10.5440625,6.765 Z M13.2440625,2.25 C13.0565625,2.25 12.8615625,2.325 12.7190625,2.4675 L11.3465625,3.84 L14.1590625,6.6525 L15.5315625,5.28 C15.8240625,4.9875 15.8240625,4.515 15.5315625,4.2225 L13.7765625,2.4675 C13.6265625,2.3175 13.4390625,2.25 13.2440625,2.25 Z M10.5440625,4.6425 L2.2490625,12.9375 L2.2490625,15.75 L5.0615625,15.75 L13.3565625,7.455 L10.5440625,4.6425 Z" id="path-1"></path>
    </defs>
    <g id="Symbols" stroke="none" stroke-width="1" fill="none" fill-rule="evenodd">
        <g id="Finastra-/-Component-/-Table-/-Standard-/-Elements-/-Cell-/-Content-/-Actions-/-Common-Actions" transform="translate(-101.000000, -19.000000)">
            <g id="icon/image/edit_24px" transform="translate(99.000000, 17.000000)">
                <mask id="mask-2" fill="white">
                    <use xlink:href="#path-1"></use>
                </mask>
                <g fill-rule="nonzero"></g>
                <g id="✱-Color-/-Material-/-Icons-/-Preview" mask="url(#mask-2)" fill="#000000" fill-opacity="0.54" fill-rule="evenodd">
                    <rect id="Rectangle" x="0" y="0" width="18" height="18"></rect>
                </g>
            </g>
        </g>
    </g>
</svg>