<svg width="24" height="24" viewBox="0 0 24 24" fill="none" xmlns="http://www.w3.org/2000/svg">
<path fill-rule="evenodd" clip-rule="evenodd" d="M17.6818 4.72727H18.5455C19.4955 4.72727 20.2727 5.50455 20.2727 6.45455V13.8194C19.7743 13.3734 19.1891 13.0223 18.5455 12.7948V10.7727H4.72727V20.2727H12.3296C12.7307 20.966 13.2878 21.5578 13.9528 22H4.72727C3.77727 22 3 21.2227 3 20.2727V6.45455C3 5.50455 3.77727 4.72727 4.72727 4.72727H5.59091V3H7.31818V4.72727H15.9545V3H17.6818V4.72727ZM4.72727 9.04545H18.5455V6.45455H4.72727V9.04545Z" fill="#707070"/>
<path d="M16.5 18.0469L14.5469 20L14 19.4531L15.9531 17.5L14 15.5469L14.5469 15L16.5 16.9531L18.4531 15L19 15.5469L17.0469 17.5L19 19.4531L18.4531 20L16.5 18.0469Z" fill="#707070" stroke="#707070" stroke-width="0.5"/>
</svg>
