<?xml version="1.0" encoding="UTF-8"?>
<svg width="16px" height="18px" viewBox="0 0 16 18" version="1.1" xmlns="http://www.w3.org/2000/svg" xmlns:xlink="http://www.w3.org/1999/xlink">
    <title>Increase_1</title>
    <g id="Page-1" stroke="none" stroke-width="1" fill="none" fill-rule="evenodd">
        <g id="Increase_1" fill="#707070" fill-rule="nonzero">
            <path d="M6,3.81 L4.45,3.81 C4.45,3.81 4.45,3.81 4.45,3.81 C4.45,3.81 4.45,3.81 4.45,3.81 C4.45,3.81 4.45,3.81 4.45,3.81 C4.45,3.81 4.45,3.81 4.45,3.81 L4.45,3.81 C4.45,3.81 4.45,3.81 4.45,3.81 L4.45,3.81 L4.45,3.81 C4.45,3.81 4.45,3.81 4.45,3.81 C4.45,3.81 4.45,3.81 4.45,3.81 C4.45,3.81 4.45,3.81 4.45,3.81 C4.45,3.81 4.45,3.81 4.45,3.81 L4.45,3.71 L4.45,3.71 L4.45,3.32 C4.45,3.32 4.45,3.32 4.45,3.32 C4.45,3.32 4.45,3.32 4.45,3.32 C4.45,3.32 4.45,3.32 4.45,3.32 C4.45,3.32 4.45,3.32 4.45,3.32 L4.45,3.32 C4.45,3.32 4.45,3.32 4.45,3.32 L4.45,3.32 L7.3,0.22 C7.37524598,0.148983397 7.47679011,0.112717636 7.58,0.12 C7.68156481,0.122858399 7.7796029,0.157872002 7.86,0.22 L10.91,3.1 C11.0612785,3.25212627 11.0612785,3.49787373 10.91,3.65 C10.8339666,3.74642042 10.7106851,3.79265098 10.59,3.77 L9.1,3.77 L9.1,4.35 C9.1,4.56539105 8.92539105,4.74 8.71,4.74 C8.49293314,4.74006784 8.31542666,4.56699902 8.31,4.35 L8.31,3.35 C8.33534143,3.14880843 8.50722498,2.99841032 8.71,3 L9.64,3 L7.58,1 L5.52,3 L6.39,3 C6.60539105,3 6.78,3.17460895 6.78,3.39 L6.78,4.39 C6.78,4.60539105 6.60539105,4.78 6.39,4.78 C6.28025191,4.77756683 6.17632692,4.73013672 6.1025784,4.64882425 C6.02882987,4.56751177 5.9917399,4.45946385 6,4.35 L6,3.81 Z" id="Path"></path>
            <path d="M8.71,4.87 C8.42281193,4.87 8.19,4.63718807 8.19,4.35 L8.19,3.35 C8.18997366,3.21298902 8.24507619,3.08172972 8.34289357,2.98579344 C8.44071095,2.88985716 8.57301535,2.83731351 8.71,2.84 L9.33,2.84 L7.58,1.2 L5.82,2.86 L6.39,2.86 C6.67332772,2.8599476 6.90455139,3.08672467 6.91,3.37 L6.91,4.37 C6.9046724,4.65495214 6.67495214,4.8846724 6.39,4.89 C6.10281193,4.89 5.87,4.65718807 5.87,4.37 L5.87,3.93 L4.47,3.93 L4.35,3.93 L4.35,3.93 L4.35,3.93 L4.2,3.82 C4.17524993,3.80539309 4.15460691,3.78475007 4.14,3.76 L4.14,3.76 L4.14,3.76 L4.14,3.76 C4.13753562,3.74342443 4.13753562,3.72657557 4.14,3.71 L4.14,3.31 C4.12928415,3.28095691 4.12928415,3.24904309 4.14,3.22 L4,3.22 L4.08,3.11 L4.08,3.11 L4.08,3 L4.08,3 L7.22,0.13 C7.31467254,0.0352491579 7.44663294,-0.0124032115 7.58,2.05347891e-16 C7.70651556,0.0014370601 7.82921808,0.0435064979 7.93,0.12 L11,3 C11.1983362,3.19902369 11.1983362,3.52097631 11,3.72 C10.8980164,3.84975579 10.7319971,3.91153041 10.57,3.88 L9.23,3.88 L9.23,4.34 C9.23005142,4.62884973 8.99879832,4.86455001 8.71,4.87 L8.71,4.87 Z M8.71,3.1 C8.5591828,3.09990379 8.4353863,3.21927899 8.43,3.37 L8.43,4.37 C8.4353863,4.52072101 8.5591828,4.64009621 8.71,4.64 C8.78861845,4.64607534 8.86596403,4.61747878 8.92172141,4.56172141 C8.97747878,4.50596403 9.00607534,4.42861845 9,4.35 L9,3.65 L10.65,3.65 C10.7246965,3.66945897 10.8037417,3.64179313 10.85,3.58 C10.9037509,3.52733509 10.9340408,3.45525125 10.9340408,3.38 C10.9340408,3.30474875 10.9037509,3.23266491 10.85,3.18 L7.77,0.31 C7.71436151,0.27090121 7.6480026,0.249945765 7.58,0.249999895 C7.49,0.249999895 7.43,0.249999895 7.39,0.31 L4.31,3.22 L4.31,3.22 L4.31,3.22 L4.31,3.28 L4.31,3.38 C4.31,3.38 4.31,3.38 4.31,3.38 L4.31,3.38 L4.31,3.38 L4.31,3.38 L4.46,3.48 L6,3.48 L6,3.6 L6.11,3.6 L6.11,4.14 C6.11,4.28911688 6.23088312,4.41 6.38,4.41 C6.52911688,4.41 6.65,4.28911688 6.65,4.14 L6.65,3.14 C6.65,2.99088312 6.52911688,2.87 6.38,2.87 L5.21,2.87 L7.58,0.87 L10,3.1 L8.71,3.1 Z" id="Shape"></path>
            <path d="M6,5.58 C6,5.3590861 6.1790861,5.17999998 6.4,5.17999998 C6.50519059,5.17996541 6.60593471,5.22242445 6.67936828,5.29774093 C6.75280185,5.3730574 6.7926972,5.47484399 6.79,5.58 L6.79,6.21 C6.7926972,6.31515601 6.75280185,6.4169426 6.67936828,6.49225907 C6.60593471,6.56757555 6.50519059,6.61003459 6.4,6.61000002 C6.2939134,6.61000002 6.19217184,6.56785726 6.11715729,6.49284271 C6.04214274,6.41782816 6,6.3160866 6,6.21 L6,5.58 Z" id="Path"></path>
            <path d="M6.41,6.73 C6.12281193,6.73 5.89,6.49718807 5.89,6.21 L5.89,5.58 C5.89,5.29281193 6.12281193,5.06 6.41,5.06 C6.69718807,5.06 6.93,5.29281193 6.93,5.58 L6.93,6.21 C6.93,6.49718807 6.69718807,6.73 6.41,6.73 L6.41,6.73 Z M6.41,5.29999994 C6.33662478,5.29994966 6.26638915,5.32976459 6.21545679,5.38258333 C6.16452443,5.43540208 6.13728238,5.50667511 6.14,5.58 L6.14,6.21 C6.14,6.35911688 6.26088312,6.48 6.41,6.48 C6.55911688,6.48 6.68,6.35911688 6.68,6.21 L6.68,5.58 C6.68271762,5.50667511 6.65547557,5.43540208 6.60454321,5.38258333 C6.55361085,5.32976459 6.48337522,5.29994966 6.41,5.29999994 L6.41,5.29999994 Z" id="Shape"></path>
            <path d="M8.31,5.58 C8.31,5.3590861 8.4890861,5.17999998 8.71,5.17999998 C8.81519059,5.17996541 8.91593471,5.22242445 8.98936828,5.29774093 C9.06280185,5.3730574 9.1026972,5.47484399 9.1,5.58 L9.1,6.21 C9.1026972,6.31515601 9.06280185,6.4169426 8.98936828,6.49225907 C8.91593471,6.56757555 8.81519059,6.61003459 8.71,6.61000002 C8.6039134,6.61000002 8.50217184,6.56785726 8.42715729,6.49284271 C8.35214274,6.41782816 8.31,6.3160866 8.31,6.21 L8.31,5.58 Z" id="Path"></path>
            <path d="M8.71,6.73 C8.42281193,6.73 8.19,6.49718807 8.19,6.21 L8.19,5.58 C8.19,5.29281193 8.42281193,5.06 8.71,5.06 C8.99718807,5.06 9.23,5.29281193 9.23,5.58 L9.23,6.21 C9.23,6.49718807 8.99718807,6.73 8.71,6.73 L8.71,6.73 Z M8.71,5.3 C8.55536027,5.3 8.43,5.42536027 8.43,5.58 L8.43,6.21 C8.4353863,6.36072101 8.5591828,6.48009621 8.71,6.48 C8.78500591,6.48557158 8.8589364,6.45960444 8.91398402,6.40835321 C8.96903164,6.35710198 9.00020665,6.28521228 9,6.21 L9,5.58 C9.00306773,5.5030669 8.97314468,5.42848361 8.91775492,5.37500383 C8.86236515,5.32152406 8.78677815,5.29423558 8.71,5.3 L8.71,5.3 Z" id="Shape"></path>
            <path d="M6,7.66 C6,7.4390861 6.1790861,7.25999998 6.4,7.25999998 C6.50519059,7.25996541 6.60593471,7.30242445 6.67936828,7.37774093 C6.75280185,7.4530574 6.7926972,7.55484399 6.79,7.66 L6.79,7.93 C6.7926972,8.03515601 6.75280185,8.1369426 6.67936828,8.21225907 C6.60593471,8.28757555 6.50519059,8.33003459 6.4,8.33000002 C6.1790861,8.33000002 6,8.1509139 6,7.93 L6,7.66 Z" id="Path"></path>
            <path d="M6.41,8.45 C6.12281193,8.45 5.89,8.21718807 5.89,7.93 L5.89,7.66 C5.89,7.37281193 6.12281193,7.14 6.41,7.14 C6.69718807,7.14 6.93,7.37281193 6.93,7.66 L6.93,7.93 C6.93,8.21718807 6.69718807,8.45 6.41,8.45 Z M6.41,7.38 C6.25927899,7.3853863 6.13990379,7.5091828 6.14,7.66 L6.14,7.93 C6.14,8.07911688 6.26088312,8.2 6.41,8.2 C6.55911688,8.2 6.68,8.07911688 6.68,7.93 L6.68,7.66 C6.68009621,7.5091828 6.56072101,7.3853863 6.41,7.38 L6.41,7.38 Z" id="Shape"></path>
            <path d="M8.31,7.66 C8.31,7.4390861 8.4890861,7.25999998 8.71,7.25999998 C8.81519059,7.25996541 8.91593471,7.30242445 8.98936828,7.37774093 C9.06280185,7.4530574 9.1026972,7.55484399 9.1,7.66 L9.1,7.93 C9.1026972,8.03515601 9.06280185,8.1369426 8.98936828,8.21225907 C8.91593471,8.28757555 8.81519059,8.33003459 8.71,8.33000002 C8.4890861,8.33000002 8.31,8.1509139 8.31,7.93 L8.31,7.66 Z" id="Path"></path>
            <path d="M8.71,8.45 C8.42281193,8.45 8.19,8.21718807 8.19,7.93 L8.19,7.66 C8.19,7.37281193 8.42281193,7.14 8.71,7.14 C8.99718807,7.14 9.23,7.37281193 9.23,7.66 L9.23,7.93 C9.23,8.21718807 8.99718807,8.45 8.71,8.45 Z M8.71,7.38 C8.55755399,7.38517207 8.43517207,7.50755399 8.43,7.66 L8.43,7.93 C8.43,8.08463973 8.55536027,8.21 8.71,8.21 C8.78677815,8.21576442 8.86236515,8.18847594 8.91775492,8.13499617 C8.97314468,8.08151639 9.00306773,8.0069331 9,7.93 L9,7.66 C9.0000485,7.58397385 8.96917985,7.51119632 8.91448652,7.45838896 C8.85979319,7.4055816 8.78597766,7.37728476 8.71,7.38 L8.71,7.38 Z" id="Shape"></path>
            <path d="M6.41,9.38 C6.51519059,9.37996541 6.61593471,9.42242445 6.68936828,9.49774093 C6.76280185,9.5730574 6.8026972,9.67484399 6.8,9.78000101 L6.8,9.78000101 C6.8026972,9.88515601 6.76280185,9.9869426 6.68936828,10.0622591 C6.61593471,10.1375756 6.51519059,10.1800346 6.41,10.18 C6.19281355,10.1856995 6.01078829,10.0169932 6,9.8 L6,9.8 C5.99439115,9.68873306 6.03544034,9.58016813 6.11326307,9.50044728 C6.1910858,9.42072644 6.29863023,9.37707352 6.41,9.38 Z" id="Path"></path>
            <path d="M6.41,10.32 C6.11736475,10.3254693 5.87569386,10.0926939 5.87018982,9.80005932 C5.86468579,9.50742472 6.0974325,9.26572622 6.39006644,9.26018745 C6.68270039,9.25464869 6.92442651,9.48736672 6.93,9.78 C6.93267733,9.92057194 6.87939005,10.0564475 6.78186582,10.1577226 C6.68434158,10.2589978 6.55057288,10.3173727 6.41,10.32 L6.41,10.32 Z M6.41,9.51 C6.26088312,9.51 6.14,9.63088312 6.14,9.78 C6.13442842,9.85500591 6.16039556,9.9289364 6.21164679,9.98398402 C6.26289802,10.0390316 6.33478772,10.0702066 6.41,10.07 C6.55911688,10.07 6.68,9.94911688 6.68,9.8 C6.68557158,9.72499409 6.65960444,9.6510636 6.60835321,9.59601598 C6.55710198,9.54096836 6.48521228,9.50979335 6.41,9.51 L6.41,9.51 Z" id="Shape"></path>
            <path d="M8.71,9.38 C8.81519059,9.37996541 8.91593471,9.42242445 8.98936828,9.49774093 C9.06280185,9.5730574 9.1026972,9.67484399 9.1,9.78 L9.1,9.78 C9.1026972,9.88515601 9.06280185,9.9869426 8.98936828,10.0622591 C8.91593471,10.1375756 8.81519059,10.1800346 8.71,10.18 C8.4890861,10.18 8.31,10.0009139 8.31,9.78 L8.31,9.78 C8.31,9.5590861 8.4890861,9.38 8.71,9.38 Z" id="Path"></path>
            <path d="M8.71,10.32 C8.41736475,10.3254693 8.17569386,10.0926939 8.17018982,9.80005932 C8.16468579,9.50742472 8.3974325,9.26572622 8.69006644,9.26018745 C8.98270039,9.25464869 9.22442651,9.48736672 9.23,9.78 C9.23267733,9.92057194 9.17939005,10.0564475 9.08186582,10.1577226 C8.98434158,10.2589978 8.85057288,10.3173727 8.71,10.32 L8.71,10.32 Z M8.71,9.51 C8.5591828,9.50990379 8.4353863,9.62927899 8.43,9.78 C8.42728476,9.85597766 8.4555816,9.92979319 8.50838896,9.98448652 C8.56119632,10.0391799 8.63397385,10.0700485 8.71,10.07 C8.78500591,10.0755716 8.8589364,10.0496044 8.91398402,9.99835321 C8.96903164,9.94710198 9.00020665,9.87521228 9,9.8 C9.00607534,9.72138155 8.97747878,9.64403597 8.92172141,9.58827859 C8.86596403,9.53252122 8.78861845,9.50392466 8.71,9.51 L8.71,9.51 Z" id="Shape"></path>
            <path d="M15.13,13.34 L15.13,10.52 C15.13,8.66 13.31,7.01 10.49,6.32 C10.3874449,6.28992573 10.2768952,6.30566543 10.1868089,6.3631673 C10.0967226,6.42066917 10.0359007,6.51431571 10.02,6.62 C9.99307708,6.72095432 10.0089094,6.82854013 10.063774,6.9174586 C10.1186386,7.00637708 10.2076944,7.06878242 10.31,7.09 C12.77,7.69 14.31,9.03 14.31,10.52 C14.31,12.52 11.24,14.27 7.59,14.27 C3.94,14.27 0.92,12.56 0.92,10.52 C0.92,9.07 2.46,7.73 4.86,7.11 C4.96046328,7.08648453 5.04704534,7.02312773 5.09985274,6.93448674 C5.15266014,6.84584575 5.1671525,6.73954189 5.14,6.64 C5.11418104,6.53878452 5.04883841,6.45215675 4.95861096,6.39952407 C4.86838351,6.34689139 4.76081348,6.33265345 4.66,6.36 C1.91,7.07 0.12,8.7 0.12,10.52 L0.12,13.34 C0.12,15.87 3.41,17.88 7.64,17.88 C11.87,17.88 15.13,15.87 15.13,13.34 Z M14.34,12.58 L14.34,13.36 C14.3266244,13.9627269 14.0791517,14.5365765 13.65,14.96 L13.65,13.26 C13.8969799,13.0512341 14.127651,12.8239061 14.34,12.58 L14.34,12.58 Z M2.34,13.77 C2.63633483,13.9431809 2.94365437,14.0968407 3.26,14.23 L3.26,16.15 C2.93785116,16.0016839 2.62990781,15.8242817 2.34,15.62 L2.34,13.77 Z M4.05,14.53 C4.40777827,14.6411035 4.77172892,14.7312564 5.14,14.8 L5.14,16.8 C4.77006176,16.7172768 4.40594703,16.6103808 4.05,16.48 L4.05,14.53 Z M5.93,14.94 C6.35708259,15.0038993 6.78817196,15.0373171 7.22,15.04 L7.22,17.04 C6.78,17 6.35,17 5.93,17 L5.93,14.94 Z M8,15 C8.41812475,14.988475 8.83536095,14.9550962 9.25,14.9 L9.25,16.9 C8.86,16.95 8.42,16.99 8,17.01 L8,15 Z M10.05,14.76 C10.42,14.68 10.8,14.59 11.14,14.49 L11.14,16.49 C10.8,16.61 10.42,16.71 10.05,16.81 L10.05,14.76 Z M11.95,14.21 C12.2649796,14.0808829 12.5692606,13.9270705 12.86,13.75 L12.86,15.62 C12.5707302,15.8139591 12.2664291,15.9845015 11.95,16.13 L11.95,14.21 Z M0.9,13.34 L0.9,12.56 C1.09338569,12.8017743 1.31120614,13.0229458 1.55,13.22 L1.55,14.92 C1.14361153,14.4929945 0.911737389,13.929362 0.9,13.34 L0.9,13.34 Z" id="Shape"></path>
            <path d="M7.64,18 C3.36,18 0,16 0,13.34 L0,10.52 C0,8.65 1.82,7 4.63,6.24 C4.75193723,6.19104851 4.88806277,6.19104851 5.01,6.24 C5.13179349,6.31007737 5.22147472,6.42486934 5.26,6.56 C5.31476373,6.68074746 5.31476373,6.81925254 5.26,6.94 C5.19253898,7.0640371 5.07667454,7.1545562 4.94,7.19 C2.55,7.83 1,9.12 1,10.52 C1,12.52 4,14.15 7.6,14.15 C11.2,14.15 14.2,12.49 14.2,10.52 C14.2,9.09 12.65,7.79 10.2,7.21 C10.1132763,7.16229483 10.0434205,7.08894631 10,7 C9.92035502,6.87893004 9.89838697,6.72881504 9.94,6.59 C9.96824541,6.45532184 10.0507478,6.33823803 10.1680727,6.26632921 C10.2853976,6.1944204 10.4271724,6.17404402 10.56,6.21 C13.44,6.92 15.3,8.61 15.3,10.53 L15.3,13.35 C15.26,16 11.91,18 7.64,18 Z M4.77,6.46 L4.7,6.46 C2,7.18 0.25,8.76 0.25,10.52 L0.25,13.34 C0.25,15.81 3.49,17.75 7.64,17.75 C11.79,17.75 15,15.81 15,13.34 L15,10.52 C15,8.72 13.22,7.12 10.45,6.44 C10.3831137,6.41047333 10.3068863,6.41047333 10.24,6.44 C10.180999,6.47861735 10.1410505,6.54035588 10.13,6.61 C10.0991747,6.67660643 10.0991747,6.75339357 10.13,6.82 C10.1597585,6.88865061 10.2253477,6.9349489 10.3,6.94 C12.82,7.55 14.44,8.94 14.44,10.49 C14.44,12.59 11.31,14.36 7.6,14.36 C3.89,14.36 0.79,12.62 0.79,10.52 C0.79,9 2.38,7.62 4.83,7 C4.90398829,6.97961469 4.96580553,6.92870637 5,6.86 C5.0250045,6.79913466 5.0250045,6.73086534 5,6.67 C4.98307846,6.59729958 4.93572708,6.53537854 4.87,6.5 C4.83956928,6.48032098 4.80560778,6.46673638 4.77,6.46 Z M7.89,17.21 L7.89,14.92 L8,14.92 C8.41142062,14.9073695 8.82194224,14.8739937 9.23,14.82 L9.38,14.82 L9.38,17.09 L9.27,17.09 C8.88,17.14 8.45,17.19 8.01,17.21 L7.89,17.21 Z M8.14,15.16 L8.14,17 C8.48,17 8.83,16.95 9.14,16.91 L9.14,15.08 C8.81,15.13 8.47,15.14 8.14,15.16 Z M7.34,17.16 L7.22,17.16 C6.77,17.16 6.33,17.1 5.91,17.04 L5.81,17.04 L5.81,14.8 L5.95,14.8 C6.37015092,14.8657807 6.79473152,14.8992123 7.22,14.9 L7.34,14.9 L7.34,17.16 Z M6.06,16.81 C6.39,16.81 6.74,16.89 7.06,16.91 L7.06,15.16 C6.72527263,15.1552993 6.39121744,15.1285749 6.06,15.08 L6.06,16.81 Z M9.93,17 L9.93,14.7 L10.03,14.7 C10.37,14.6266667 10.73,14.5366667 11.11,14.43 L11.27,14.38 L11.27,16.6 L11.19,16.6 C10.84,16.72 10.44,16.82 10.09,16.92 L9.93,17 Z M10.18,14.93 L10.18,16.68 L11,16.4 L11,14.69 L10.18,14.93 Z M5.26,17 L5.11,17 C4.73335426,16.8897497 4.36283206,16.7595662 4,16.61 L3.92,16.61 L3.92,14.36 L4.08,14.41 C4.43002668,14.5245218 4.7875437,14.6147364 5.15,14.68 L5.25,14.68 L5.26,17 Z M4.17,16.4 C4.44830697,16.4995577 4.73210878,16.5830288 5.02,16.65 L5.02,14.9 C4.733092,14.8453566 4.44934527,14.7752544 4.17,14.69 L4.17,16.4 Z M11.84,16.4 L11.84,14.2 L11.91,14.2 C12.219673,14.0701805 12.5203406,13.9198467 12.81,13.75 L13,13.63 L13,15.78 L12.94,15.78 C12.6488513,15.985083 12.3371771,16.1593524 12.01,16.3 L11.84,16.4 Z M12.08,14.4 L12.08,16 C12.3111156,15.8838551 12.5348712,15.7536094 12.75,15.61 L12.75,14 C12.532788,14.1220151 12.3091272,14.2321764 12.08,14.33 L12.08,14.4 Z M3.38,16.4 L3.2,16.31 C2.87386528,16.1593442 2.56251334,15.9785592 2.27,15.77 L2.27,15.77 L2.27,13.56 L2.45,13.67 C2.69,13.8 3,13.97 3.35,14.12 L3.43,14.12 L3.38,16.4 Z M2.47,15.6 C2.68022423,15.7518092 2.90075681,15.8888067 3.13,16.01 L3.13,14.31 C2.90457526,14.2186337 2.68425387,14.1151494 2.47,14 L2.47,15.6 Z M13.47,15.32 L13.47,13.2 L13.52,13.2 C13.7639963,12.9985883 13.9913962,12.7778766 14.2,12.54 L14.41,12.28 L14.41,13.4 C14.398802,14.0375039 14.1364657,14.6448306 13.68,15.09 L13.47,15.32 Z M13.72,13.32 L13.72,14.64 C14.0028312,14.2761619 14.1606567,13.8307433 14.17,13.37 L14.17,12.9 C14.0442417,13.0438574 13.9107089,13.1807285 13.77,13.31 L13.72,13.32 Z M1.67,15.25 L1.46,15 C1.03048737,14.5524343 0.784298828,13.9601546 0.77,13.34 L0.77,12.22 L0.99,12.48 C1.18022478,12.7152538 1.39474617,12.9297752 1.63,13.12 L1.63,13.12 L1.67,15.25 Z M1,12.89 L1,13.34 C1.00876057,13.7820928 1.1517528,14.2110695 1.41,14.57 L1.41,13.27 L1,12.89 Z" id="Shape"></path>
        </g>
    </g>
</svg>