<?xml version="1.0" encoding="UTF-8"?>
<svg width="25px" height="25px" viewBox="0 0 25 25" version="1.1" xmlns="http://www.w3.org/2000/svg" xmlns:xlink="http://www.w3.org/1999/xlink">
    <title>Group 9</title>
    <g id="Page-1" stroke="none" stroke-width="1" fill="none" fill-rule="evenodd">
        <g id="Group-9" transform="translate(1.000000, 1.000000)">
            <path d="M22.697856,4.51056 C22.333056,2.26992 17.624256,0.35952 11.943936,0.35952 C7.114176,0.35952 3.027456,1.65264 1.615296,3.3672 C0.871296,3.9384 0.370176,6.6456 0.370176,9.90864 C0.307776,11.82672 0.538176,13.74288 1.053696,15.5928 C1.524096,16.77072 2.488896,17.68656 3.696576,18.10416 L4.227456,22.9464 C4.266816,23.22576 4.521216,23.42448 4.805376,23.3976 C4.928256,23.38416 5.041536,23.32464 5.124096,23.23152 L8.648256,19.39728 C9.740736,19.53648 10.841856,19.61136 11.943936,19.62384 C17.700096,19.62384 22.408896,17.78928 22.773696,15.47184 C23.608896,11.84496 23.608896,8.07792 22.773696,4.45008 L22.697856,4.51056 Z" id="Stroke-1" stroke="#000000" stroke-width="0.75"></path>
            <path d="M6.247968,8.585472 C7.003488,8.585472 7.615008,9.191232 7.615008,9.939072 C7.615008,10.685952 7.003488,11.292672 6.247968,11.292672 C5.492448,11.292672 4.880928,10.685952 4.880928,9.939072 C4.880928,9.191232 5.492448,8.585472 6.247968,8.585472" id="Fill-3" fill="#000000"></path>
            <path d="M12.186528,8.585472 C12.942048,8.585472 13.553568,9.191232 13.553568,9.939072 C13.553568,10.685952 12.942048,11.292672 12.186528,11.292672 C11.431968,11.292672 10.819488,10.685952 10.819488,9.939072 C10.819488,9.191232 11.431968,8.585472 12.186528,8.585472" id="Fill-5" fill="#000000"></path>
            <path d="M17.442144,8.585472 C18.196704,8.585472 18.809184,9.191232 18.809184,9.939072 C18.809184,10.685952 18.196704,11.292672 17.442144,11.292672 C16.687584,11.292672 16.075104,10.685952 16.075104,9.939072 C16.075104,9.191232 16.687584,8.585472 17.442144,8.585472" id="Fill-7" fill="#000000"></path>
        </g>
    </g>
</svg>