<?xml version="1.0" encoding="UTF-8"?>
<svg width="19px" height="14px" viewBox="0 0 19 14" version="1.1" xmlns="http://www.w3.org/2000/svg" xmlns:xlink="http://www.w3.org/1999/xlink">
    <title>Request Settlement</title>
    <g id="Page-1" stroke="none" stroke-width="1" fill="none" fill-rule="evenodd">
        <g id="Request-Settlement" transform="translate(1.000000, 0.000000)" fill="#707070" fill-rule="nonzero" stroke="#707070" stroke-width="0.4">
            <path d="M17.28,6.21 L14,8.68 L9.62,2.09 C9.55398632,2.01818041 9.45628759,1.98436162 9.36,2 C9.13,2 8.97,2 8.85,2.14 C8.73,2.28 7.85,3.5 7.28,4.47 C7,5 6,4.89 5.51,4.8 L6.34,1.59 C6.45761494,1.18386501 6.81795282,0.8955947 7.24,0.87 L9.55,0.77 L12.75,2.26 C12.8056942,2.27484643 12.8643058,2.27484643 12.92,2.26 L17.49,1.59 C17.5645997,1.58011861 17.6320819,1.5406255 17.6772327,1.48042449 C17.7223834,1.42022349 17.7414018,1.34438246 17.73,1.27 C17.7201186,1.19540034 17.6806255,1.1279181 17.6204245,1.08276734 C17.5602235,1.03761659 17.4843825,1.01859823 17.41,1.03 L17.41,1.03 L12.92,1.69 L9.72,0.23 C9.67726676,0.219801169 9.63273324,0.219801169 9.59,0.23 L7.22,0.3 C5.85,0.36 5.73,1.78 5.69,1.85 L2.69,2.85 L0.51,2.62 C0.435655052,2.61160257 0.36104158,2.63330811 0.302802507,2.68027511 C0.244563435,2.7272421 0.20754343,2.79556355 0.2,2.87 C0.187992996,3.02326319 0.297671944,3.15926509 0.45,3.18 L0.45,3.18 L2.65,3.43 L2.77,3.43 L5.52,2.5 L4.9,4.94 C4.8612237,5.08603396 4.94530452,5.23649439 5.09,5.28 C5.17,5.28 7.09,5.87 7.77,4.73 C8.23,3.94 9,2.88 9.23,2.55 L9.23,2.55 L13.67,9.24 C13.6910995,9.27452086 13.7181909,9.30499875 13.75,9.33 C13.7560734,9.37061463 13.7733934,9.4087186 13.8,9.44 C13.9083034,9.59771906 13.9513115,9.7912554 13.92,9.98 C13.8929798,10.1702073 13.7878825,10.3405375 13.63,10.45 C13.305302,10.6719918 12.8631004,10.5968175 12.63,10.28 L11.33,8.46 C11.2349182,8.33497373 11.0575798,8.30837298 10.93,8.4 C10.8689612,8.44240402 10.8272856,8.50733595 10.8141555,8.58048945 C10.8010254,8.65364294 10.8175182,8.72901536 10.86,8.79 L11.8,10.12 C11.8,10.12 11.8,10.12 11.8,10.18 C11.9008622,10.3231908 11.940672,10.5006008 11.910662,10.6731586 C11.8806519,10.8457164 11.7832833,10.9992693 11.64,11.1 L11.64,11.1 C11.3159376,11.3065418 10.8892015,11.2425314 10.64,10.95 L9.59,9.26 C9.51544155,9.12192882 9.34307119,9.07044158 9.20500001,9.14500002 C9.06692883,9.21955845 9.01544157,9.39192881 9.09,9.53 L9.09,9.58 L9.91,10.81 L9.91,10.81 C10.0756876,11.0340394 10.1474407,11.3138764 10.11,11.59 C10.0986774,11.7121937 10.0275063,11.8208232 9.92,11.88 C9.78474673,11.9781509 9.61603827,12.0185425 9.45099988,11.9922864 C9.2859615,11.9660303 9.13811685,11.875278 9.04,11.74 L8,10.09 C7.94462383,10.0060426 7.8486634,9.95800557 7.74826606,9.96398403 C7.64786873,9.96996249 7.55828723,10.0290482 7.51326606,10.118984 C7.46824489,10.2089199 7.47462383,10.3160426 7.53,10.4 L8.53,11.87 C8.53,11.87 8.53,11.87 8.53,11.93 C8.59290397,12.050568 8.60505014,12.1912654 8.56373967,12.32083 C8.52242921,12.4503947 8.43108383,12.5580948 8.31,12.62 L8.31,12.62 C7.97,12.85 7.5,12.62 7.24,12.44 L7.24,12.44 C6.4,12 5.18,11.13 3,9.55 L0.65,7.86 C0.567251171,7.78249556 0.446924574,7.76032102 0.34198394,7.80323688 C0.237043305,7.84615273 0.166735682,7.94628783 0.162008127,8.05956606 C0.157280572,8.1728443 0.21900016,8.27848942 0.32,8.33 L2.66,10 C4.86,11.6 6.08,12.48 6.86,12.93 C7.17403737,13.1413631 7.54161053,13.259264 7.92,13.27 C8.14542095,13.2795515 8.36744746,13.2125911 8.55,13.08 C8.78737357,12.9348784 8.96748489,12.712388 9.06,12.45 C9.45300235,12.6429178 9.91956122,12.6084995 10.28,12.36 C10.5038152,12.2061611 10.6554324,11.9679056 10.7,11.7 L10.7,11.63 C10.8845426,11.7166974 11.0861099,11.7611106 11.29,11.76 C11.5512954,11.7608811 11.8064016,11.6805052 12.02,11.53 C12.2447538,11.3761828 12.410499,11.1504872 12.49,10.89 C12.6464375,10.9961633 12.8237111,11.0677545 13.01,11.1 L13.23,11.1 C13.7032868,11.0974243 14.137159,10.8358764 14.3604268,10.4185533 C14.5836946,10.0012303 14.5605021,9.49515281 14.3,9.1 L17.62,6.63 C17.7437642,6.53857031 17.7705592,6.36440252 17.68,6.24 C17.5761972,6.12453134 17.399865,6.11130642 17.28,6.21 Z" id="Path"></path>
        </g>
    </g>
</svg>