<?xml version="1.0" encoding="UTF-8"?>
<svg width="24px" height="24px" viewBox="0 0 24 24" version="1.1" xmlns="http://www.w3.org/2000/svg" xmlns:xlink="http://www.w3.org/1999/xlink">
    <title>Group 8</title>
    <defs>
        <polygon id="path-1" points="0 0 23.9999 0 23.9999 23.9996 0 23.9996"></polygon>
    </defs>
    <g id="Page-1" stroke="none" stroke-width="1" fill="none" fill-rule="evenodd">
        <g id="Group-8">
            <path d="M9.456,13.0406 C9.332,13.0406 9.208,12.9946 9.11,12.9026 L6.503,10.4366 C6.403,10.3416 6.347,10.2096 6.347,10.0716 C6.347,9.9346 6.403,9.8036 6.503,9.7086 L9.116,7.2406 C9.317,7.0516 9.634,7.0606 9.823,7.2616 C10.013,7.4616 10.004,7.7776 9.803,7.9676 L7.575,10.0716 L9.801,12.1786 C10.001,12.3686 10.008,12.6856 9.817,12.8856 C9.72,12.9886 9.588,13.0406 9.456,13.0406" id="Fill-1" fill="#000000"></path>
            <path d="M17.1532,16.8961 L10.8442,16.8961 C10.5682,16.8961 10.3442,16.6721 10.3442,16.3961 C10.3442,16.1201 10.5682,15.8961 10.8442,15.8961 L16.6532,15.8961 L16.6532,10.5711 L7.2982,10.5711 C7.0212,10.5711 6.7982,10.3471 6.7982,10.0711 C6.7982,9.7941 7.0212,9.5711 7.2982,9.5711 L17.1532,9.5711 C17.4292,9.5711 17.6532,9.7941 17.6532,10.0711 L17.6532,16.3961 C17.6532,16.6721 17.4292,16.8961 17.1532,16.8961" id="Fill-3" fill="#000000"></path>
            <g id="Group-7">
                <mask id="mask-2" fill="white">
                    <use xlink:href="#path-1"></use>
                </mask>
                <g id="Clip-6"></g>
                <path d="M11.9999,0.9996 C5.9349,0.9996 0.9999,5.9346 0.9999,11.9996 C0.9999,18.0646 5.9349,22.9996 11.9999,22.9996 C18.0649,22.9996 22.9999,18.0646 22.9999,11.9996 C22.9999,5.9346 18.0649,0.9996 11.9999,0.9996 M11.9999,23.9996 C5.3839,23.9996 -0.0001,18.6166 -0.0001,11.9996 C-0.0001,5.3836 5.3839,-0.0004 11.9999,-0.0004 C18.6169,-0.0004 23.9999,5.3836 23.9999,11.9996 C23.9999,18.6166 18.6169,23.9996 11.9999,23.9996" id="Fill-5" fill="#000000" mask="url(#mask-2)"></path>
            </g>
        </g>
    </g>
</svg>