<?xml version="1.0" encoding="UTF-8"?>
<svg width="19px" height="18px" viewBox="0 0 19 18" version="1.1" xmlns="http://www.w3.org/2000/svg" xmlns:xlink="http://www.w3.org/1999/xlink">
    <title>Asset 2</title>
    <g id="Page-1" stroke="none" stroke-width="1" fill="none" fill-rule="evenodd">
        <g id="Asset-2" fill="#707070" fill-rule="nonzero">
            <path d="M17.55,18.0000344 L1.197,18.0000344 C0.878800191,18.0024199 0.572930541,17.877085 0.347922792,17.6520772 C0.122915043,17.4270695 -0.00241987564,17.1211998 -3.4401065e-05,16.803 L-3.4401065e-05,1.359 C-0.000348347706,0.932861873 0.225882927,0.538671016 0.594,0.324 C0.968571348,0.113987448 1.42542865,0.113987448 1.8,0.324 L3.915,1.548 L3.015,3.105 L1.8,2.412 L1.8,16.2 L16.947,16.2 L16.947,2.367 L15.462,3.177 C15.1046027,3.37914286 14.6673973,3.37914286 14.31,3.177 L12.042,1.89 L9.981,3.123 C9.61115123,3.3386974 9.15384877,3.3386974 8.784,3.123 L6.246,1.719 L7.146,0.144 L9.36,1.395 L11.421,0.171 C11.7820272,-0.0470723493 12.2324839,-0.0539495496 12.6,0.153 L14.886,1.431 L16.983,0.297 C17.3487518,0.0900356367 17.7962482,0.0900356367 18.162,0.297 C18.5265901,0.509635284 18.749704,0.900942648 18.7470344,1.323 L18.7470344,16.803 C18.7494199,17.1211998 18.624085,17.4270695 18.3990772,17.6520772 C18.1740695,17.877085 17.8681998,18.0024199 17.55,18.0000344 L17.55,18.0000344 Z" id="Path"></path>
            <path d="M12.429,11.907 C12.5134996,11.907 12.582,11.9755004 12.582,12.06 C12.582,12.1444996 12.5134996,12.213 12.429,12.213 L9.198,12.213 C5.121,12.213 5.121,7.29 9.198,7.29 L12.051,7.29 L10.584,5.985 C10.512,5.904 10.665,5.67 10.818,5.823 L12.51,7.29 C12.5822859,7.37919302 12.5822859,7.50680698 12.51,7.596 L10.8,9.054 C10.647,9.216 10.494,8.982 10.566,8.829 L12.033,7.596 L9.198,7.596 C5.427,7.596 5.508,11.907 9.198,11.907 L12.429,11.907 Z" id="Path"></path>
            <path d="M12.429,12.33 L9.198,12.33 C7.02,12.33 6.03,10.989 6.03,9.747 C6.03,8.505 7.02,7.2 9.198,7.2 L11.754,7.2 L10.512,6.066 C10.4602459,6.01419696 10.4397119,5.93890546 10.458,5.868 C10.4820708,5.77350705 10.5537282,5.69843738 10.647,5.67 C10.7393809,5.65114844 10.8349045,5.68185245 10.899,5.751 L12.6,7.2 C12.7204503,7.33618825 12.7204503,7.54081175 12.6,7.677 L10.89,9.144 C10.8007193,9.22525339 10.6642807,9.22525339 10.575,9.144 C10.4571919,9.04468806 10.4203412,8.87886013 10.485,8.739 L10.485,8.739 L11.7,7.713 L9.198,7.713 C7.353,7.713 6.498,8.757 6.498,9.738 C6.498,10.719 7.335,11.79 9.198,11.79 L12.429,11.79 C12.5781169,11.79 12.699,11.9108831 12.699,12.06 C12.699,12.2091169 12.5781169,12.33 12.429,12.33 Z M9.198,7.398 C7.2,7.398 6.29999523,8.622 6.29999523,9.747 C6.29999523,10.872 7.2,12.105 9.243,12.105 L12.474,12.105 C12.474,12.105 12.537,12.105 12.537,12.105 C12.537,12.105 12.537,12.06 12.474,12.06 L9.198,12.06 C7.29,12.015 6.29999523,10.872 6.29999523,9.738 C6.2987031,9.13822971 6.56217963,8.56846173 7.02,8.181 C7.63926307,7.69602123 8.41234728,7.45003989 9.198,7.488 L12.357,7.488 L10.683,8.892 C10.6739634,8.91514938 10.6739634,8.94085062 10.683,8.964 L10.683,8.964 L10.683,8.964 L12.384,7.497 C12.4141305,7.45372837 12.4141305,7.39627163 12.384,7.353 L10.746,5.913 L10.746,5.913 C10.746,5.913 10.746,5.913 10.746,5.913 L12.402,7.398 L9.198,7.398 Z" id="Shape"></path>
            <path d="M12.429,11.529 L9.198,11.529 C8.53134014,11.5611096 7.87570379,11.3500267 7.353,10.935 C6.99626338,10.6394989 6.78865863,10.2012222 6.786,9.738 C6.786,8.892 7.542,7.938 9.198,7.938 L10.998,7.938 L10.332,8.505 L10.233,8.622 C10.1110334,8.87962385 10.1861158,9.18746172 10.413,9.36 C10.5987823,9.51228085 10.8662177,9.51228085 11.052,9.36 L12.78,7.866 C12.8351433,7.80934653 12.8780334,7.74194772 12.906,7.668 L12.906,7.668 L12.906,7.668 C12.906,7.668 12.906,7.623 12.906,7.605 L12.906,7.605 C12.9149846,7.54232033 12.9149846,7.47867967 12.906,7.416 C12.906,7.416 12.906,7.353 12.906,7.326 C12.9019718,7.30216902 12.9019718,7.27783098 12.906,7.254 L12.906,7.254 C12.8785561,7.17241207 12.8323115,7.09842073 12.771,7.038 L11.097,5.598 C10.9958556,5.47797695 10.848839,5.40610215 10.692,5.4 C10.5613193,5.41085864 10.4379045,5.4646548 10.341,5.553 C10.1442946,5.75269477 10.1442946,6.07330523 10.341,6.273 L11.061,6.921 L9.198,6.921 C8.26631111,6.89184306 7.35753309,7.21296603 6.651,7.821 C6.08246883,8.31871308 5.75475806,9.03639966 5.751,9.792 C5.76,11.16 6.939,12.6 9.198,12.6 L12.429,12.6 C12.7222632,12.6 12.96,12.3622632 12.96,12.069 C12.96,11.7757368 12.7222632,11.538 12.429,11.538 L12.429,11.529 Z" id="Path"></path>
            <path d="M12.429,12.708 L9.198,12.708 C6.867,12.708 5.652,11.223 5.652,9.747 C5.64062017,8.96492857 5.96894263,8.21635336 6.552,7.695 C7.28150312,7.077634 8.21610173,6.7564661 9.171,6.795 L10.8,6.795 L10.305,6.345 C10.185571,6.23666888 10.117017,6.08323858 10.116,5.922 C10.1162012,5.75091856 10.1880035,5.58773152 10.314,5.472 C10.4223311,5.35257102 10.5757614,5.28401705 10.737,5.283 L10.737,5.283 C10.9159608,5.28315755 11.0875344,5.35437676 11.214,5.481 L12.879,6.912 C12.9298467,6.97061184 12.9750472,7.03389253 13.014,7.101 L13.014,7.101 L13.014,7.2 C13.014,7.2 13.014,7.2 13.014,7.2 L13.014,7.263 C13.0103633,7.28081631 13.0103633,7.29918369 13.014,7.317 C13.0185196,7.37391041 13.0185196,7.43108959 13.014,7.488 L13.014,7.488 L13.014,7.578 L13.014,7.578 L12.906,7.578 L13.005,7.632 L13.005,7.722 L13.005,7.722 C12.9734315,7.78099634 12.9340794,7.83548376 12.888,7.884 L11.169,9.369 C10.9540592,9.57899884 10.6184553,9.60188093 10.377,9.423 C10.1025488,9.2105296 10.0159527,8.83402505 10.17,8.523 L10.278,8.388 L10.728,8.01 L9.198,8.01 C7.614,8.01 6.894,8.865 6.894,9.657 C6.90044164,10.0884825 7.09425661,10.4958224 7.425,10.773 C7.93618732,11.1736003 8.57685258,11.3722065 9.225,11.331 L12.456,11.331 C12.8138805,11.331 13.104,11.6211195 13.104,11.979 C13.104,12.3368805 12.8138805,12.627 12.456,12.627 L12.429,12.708 Z M9.198,7.02 C8.29729468,6.97922128 7.41407682,7.2779095 6.723,7.857 C6.18513444,8.33808129 5.87748734,9.02537798 5.877,9.747 C5.877,11.106 7.02,12.447 9.198,12.447 L12.429,12.447 C12.6626164,12.447 12.852,12.2576164 12.852,12.024 C12.852,11.7903836 12.6626164,11.601 12.429,11.601 L9.198,11.601 C8.50641206,11.6325257 7.82638665,11.4154284 7.281,10.989 C6.89747361,10.6710211 6.67357654,10.2001788 6.669,9.702 C6.669,8.802 7.461,7.83 9.198,7.83 L11.313,7.83 L10.413,8.586 L10.332,8.694 C10.2454795,8.89841094 10.3084477,9.13546776 10.485,9.27 C10.6313184,9.39070649 10.8426816,9.39070649 10.989,9.27 L12.708,7.785 C12.7463723,7.73941113 12.7767973,7.6876886 12.798,7.632 L12.798,7.632 L12.798,7.632 L12.798,7.632 C12.8070634,7.5783803 12.8070634,7.5236197 12.798,7.47 C12.7924183,7.44328848 12.7924183,7.41571152 12.798,7.389 L12.798,7.389 L12.798,7.389 C12.7696567,7.32539648 12.7300155,7.26745933 12.681,7.218 L11.016,5.778 C10.9301505,5.69185224 10.8136202,5.64329794 10.692,5.643 C10.590514,5.64676863 10.4941476,5.68852742 10.422,5.76 C10.3424131,5.83846678 10.2971146,5.94524192 10.296,6.057 C10.2983243,6.15619166 10.3404965,6.25026799 10.413,6.318 L11.313,7.155 L9.198,7.02 Z" id="Shape"></path>
            <polygon id="Shape" points="10.637 8.892 10.467 8.712 10.467 8.712 10.627 8.902"></polygon>
            <polygon id="Path" points="10.521 6.219 10.494 6.21 10.476 6.174 10.107 5.634 10.638 6.03 10.602 6.093 10.665 6.048 10.602 6.093"></polygon>
        </g>
    </g>
</svg>