<svg xmlns="http://www.w3.org/2000/svg" width="16" height="16" viewBox="0 0 16 16"><defs><style>.a{fill:none;}.b{fill:#939393;stroke:rgba(0,0,0,0);stroke-miterlimit:10;}</style></defs><g transform="translate(-384 -230)"><rect class="a" width="16" height="16" transform="translate(384 230)"/><path class="b" d="M13.016,12.287A.864.864,0,0,0,12.921,12H3.079a.864.864,0,0,0-.095.287,1.258,1.258,0,0,0,.307,1.076l3.924,4.2a1.058,1.058,0,0,0,1.572,0l3.924-4.2A1.258,1.258,0,0,0,13.016,12.287Zm-.7.652L8.4,17.148a.538.538,0,0,1-.791,0L3.686,12.939A.6.6,0,0,1,3.53,12.6H12.47A.6.6,0,0,1,12.314,12.939Z" transform="translate(384.036 226.979)"/><path class="b" d="M13.016,12.287A.864.864,0,0,0,12.921,12H3.079a.864.864,0,0,0-.095.287,1.258,1.258,0,0,0,.307,1.076l3.924,4.2a1.058,1.058,0,0,0,1.572,0l3.924-4.2A1.258,1.258,0,0,0,13.016,12.287Zm-.7.652L8.4,17.148a.538.538,0,0,1-.791,0L3.686,12.939A.6.6,0,0,1,3.53,12.6H12.47A.6.6,0,0,1,12.314,12.939Z" transform="translate(400.036 248.895) rotate(180)"/></g></svg>