<?xml version="1.0" encoding="UTF-8"?>
<svg width="24px" height="28px" viewBox="0 0 24 28" version="1.1" xmlns="http://www.w3.org/2000/svg" xmlns:xlink="http://www.w3.org/1999/xlink">
    <!-- Generator: Sketch 62 (91390) - https://sketch.com -->
    <title>MASTER Finastra Icons_9 Money-134_pink</title>
    <desc>Created with Sketch.</desc>
    <g id="Page-1" stroke="none" stroke-width="1" fill="none" fill-rule="evenodd">
        <g id="Artboard-Copy-3" transform="translate(-522.000000, -330.000000)" fill="#414141" fill-rule="nonzero">
            <g id="MASTER-Finastra-Icons_9-Money-134_pink" transform="translate(522.000000, 330.000000)">
                <path d="M1.07,6 C1.1797737,6.0765068 1.3156322,6.1058231 1.447187,6.0813915 C1.5787418,6.0569599 1.6950154,5.9808191 1.77,5.87 C4.2560251,2.7679132 8.0247545,0.9738064 12,1 C14.772593,0.9885945 17.4654169,1.9273772 19.63,3.66 C20.4254436,4.2745259 21.1469305,4.979234 21.78,5.76 L19.08,5.76 C18.8418397,5.8078696 18.6704988,6.0170765 18.6704988,6.26 C18.6704988,6.5029235 18.8418397,6.7121304 19.08,6.76 L22.93,6.76 C23.2116652,6.76 23.44,6.5316652 23.44,6.25 L23.44,2.23 C23.3921304,1.9918397 23.1829235,1.8204988 22.94,1.8204988 C22.6970765,1.8204988 22.4878696,1.9918397 22.44,2.23 L22.44,5 C21.7985695,4.2363351 21.0815922,3.53946 20.3,2.92 C17.9435661,1.0353139 15.0174141,0.0058725 12,-2.70006185e-13 C9.032398,-0.0139374 6.1356303,0.9061712 3.72,2.63 C2.6634595,3.3662041 1.725921,4.2599008 0.94,5.28 C0.8597735,5.3920721 0.8283232,5.5318438 0.8528127,5.6674783 C0.8773023,5.8031127 0.9556464,5.9230604 1.07,6 Z" id="Path"></path>
                <path d="M10.37,26.92 C7.2192357,26.4216379 4.367117,24.7674091 2.37,22.28 L5,22.28 C5.1343323,22.2826872 5.2640935,22.2311975 5.3600357,22.1371364 C5.455978,22.0430754 5.5100269,21.9143592 5.51,21.78 C5.51,21.4983348 5.2816652,21.27 5,21.27 L1.15,21.27 C1.0156408,21.27 0.8869246,21.324022 0.7928636,21.4199643 C0.6988025,21.5159065 0.6473128,21.6456677 0.649899857,21.78 L0.649899857,25.78 C0.649899857,26.0561424 0.8738576,26.28 1.15,26.28 C1.2843323,26.2826872 1.4140935,26.2311975 1.5100357,26.1371364 C1.605978,26.0430754 1.6600269,25.9143592 1.66,25.78 L1.66,23.09 C3.8172687,25.7106856 6.8717964,27.4357631 10.23,27.93 L10.3,27.93 C10.5516536,27.928958 10.7664464,27.7478582 10.81,27.5 C10.8456985,27.2191188 10.6501123,26.9613007 10.37,26.92 Z" id="Path"></path>
                <path d="M23,22.07 C22.770691,21.9075606 22.4531879,21.9612231 22.29,22.19 C20.0775842,24.9593979 16.8223682,26.6955131 13.29,26.99 C13.0529793,27.0485053 12.890663,27.2667773 12.9028545,27.5106073 C12.915046,27.7544373 13.0983255,27.9554295 13.34,27.99 C17.1750345,27.6849226 20.7072179,25.7882779 23.08,22.76 C23.2435243,22.5459926 23.2081529,22.2409144 23,22.07 Z" id="Path"></path>
                <path d="M4.73,18.85 C7.1876671,18.85 9.18,16.8576671 9.18,14.4 C9.18,11.9423329 7.1876671,9.95 4.73,9.95 C2.2723329,9.95 0.28,11.9423329 0.28,14.4 C0.2854992,16.8553857 2.2746143,18.8445008 4.73,18.85 Z M4.73,10.96 C6.6298595,10.96 8.17,12.5001405 8.17,14.4 C8.17,16.2998595 6.6298595,17.84 4.73,17.84 C2.8301405,17.84 1.29,16.2998595 1.29,14.4 C1.311911,12.5157798 2.8456524,10.9998726 4.73,11 L4.73,10.96 Z" id="Shape"></path>
                <path d="M19.27,18.65 C21.7276671,18.65 23.72,16.6576671 23.72,14.2 C23.72,11.7423329 21.7276671,9.75 19.27,9.75 C16.8123329,9.75 14.82,11.7423329 14.82,14.2 C14.82,16.6576671 16.8123329,18.65 19.27,18.65 Z M19.27,10.7599854 C20.662253,10.7559527 21.9196676,11.5915109 22.4552665,12.8766251 C22.9908654,14.1617394 22.6990271,15.6429819 21.7159854,16.6288895 C20.7329438,17.6147972 19.2525571,17.9109465 17.9658891,17.3790911 C16.6792211,16.8472357 15.84,15.5922589 15.84,14.2 C15.84,12.3040389 17.3740469,10.7655115 19.27,10.7599854 Z" id="Shape"></path>
                <path d="M12.1,3 C9.6423329,3 7.65,4.9923329 7.65,7.45 C7.65,9.9076671 9.6423329,11.9 12.1,11.9 C14.5576671,11.9 16.55,9.9076671 16.55,7.45 C16.5445008,4.9946143 14.5553857,3.0054992 12.1,3 Z M12.1,10.89 C10.2001405,10.89 8.66,9.3498595 8.66,7.45 C8.66,5.5501405 10.2001405,4.01 12.1,4.01 C13.9998595,4.01 15.54,5.5501405 15.54,7.45 C15.5235331,9.3381334 13.9882052,10.8600718 12.1,10.86 L12.1,10.89 Z" id="Shape"></path>
                <path d="M16.45,21.17 C16.45,18.7123329 14.4576671,16.72 12,16.72 C9.5423329,16.72 7.55,18.7123329 7.55,21.17 C7.55,23.6276671 9.5423329,25.62 12,25.62 C14.4553857,25.6145008 16.4445008,23.6253857 16.45,21.17 Z M12,24.61 C10.1001405,24.61 8.56,23.0698595 8.56,21.17 C8.56,19.2701405 10.1001405,17.73 12,17.73 C13.8998595,17.73 15.44,19.2701405 15.44,21.17 C15.44,23.0698595 13.8998595,24.61 12,24.61 Z" id="Shape"></path>
                <path d="M12.58,5.93 C12.8503581,5.9095698 13.1174241,5.9997948 13.32,6.18 L13.49,5.36 C13.2212166,5.2339834 12.9267595,5.1723528 12.63,5.18 C12.0734068,5.1582549 11.5343196,5.3768037 11.15,5.78 C10.8952892,6.0602225 10.7253684,6.4069998 10.66,6.78 L10.3,6.78 L10.21,7.24 L10.6,7.24 C10.59457,7.3199079 10.59457,7.4000921 10.6,7.48 L10.6,7.63 L10.3,7.63 L10.21,8.09 L10.65,8.09 C10.7207947,8.4632213 10.8938998,8.8094315 11.15,9.09 C11.5183218,9.4790313 12.0344398,9.6934746 12.57,9.68 C12.880486,9.6853107 13.1881552,9.6203583 13.47,9.49 L13.47,8.58 C13.2291727,8.8191211 12.8989942,8.9461128 12.56,8.93 C12.2641994,8.9329649 11.9822652,8.804813 11.79,8.58 C11.6762502,8.4330275 11.597582,8.2620097 11.56,8.08 L12.92,8.08 L13,7.62 L11.5,7.62 L11.5,7.23 L13.1,7.23 L13.19,6.77 L11.56,6.77 C11.6006211,6.5901601 11.6828183,6.4223409 11.8,6.28 C11.9945111,6.0524714 12.2807202,5.9240442 12.58,5.93 Z" id="Path"></path>
                <path d="M4.27,15.6 C4.1863759,15.4749711 4.1254437,15.3361813 4.09,15.19 L3.32,15.27 C3.3588018,15.6085636 3.502107,15.9266313 3.73,16.18 C3.9550906,16.3978261 4.2480277,16.5319419 4.56,16.56 L4.56,17.1 L5,17.1 L5,16.55 C5.3490206,16.5118945 5.6723611,16.3484477 5.91,16.09 C6.1252776,15.840466 6.2394244,15.5194281 6.23,15.19 C6.2524387,14.9074092 6.1706211,14.6263835 6,14.4 C5.7232992,14.1383204 5.3753642,13.9643529 5,13.9 L5,12.74 C5.1984713,12.8224849 5.3363865,13.0063718 5.36,13.22 L6.11,13.12 C6.0250015,12.5650531 5.560777,12.1468328 5,12.12 L5,11.82 L4.56,11.82 L4.56,12.12 C4.250849,12.1364796 3.9602903,12.2727911 3.75,12.5 C3.5420777,12.7174102 3.4303575,13.0093243 3.44,13.31 C3.4306313,13.6065997 3.5262473,13.8969891 3.71,14.13 C3.9340587,14.3814733 4.2313419,14.5563458 4.56,14.63 L4.56,15.88 C4.4453286,15.8073201 4.3466575,15.7120515 4.27,15.6 Z M5,14.73 C5.148291,14.7647151 5.2835915,14.8410385 5.39,14.95 C5.4707468,15.0484628 5.5133444,15.1727059 5.51,15.3 C5.5096276,15.4392169 5.4600379,15.5738177 5.37,15.68 C5.2732274,15.7889216 5.1431321,15.8627594 5,15.89 L5,14.73 Z M4.29,13.54 C4.2244674,13.4576225 4.1891703,13.3552611 4.19,13.25 C4.1922498,13.1359982 4.2269374,13.0249978 4.29,12.93 C4.3629664,12.8386427 4.4599162,12.7693929 4.57,12.73 L4.57,13.73 C4.4576934,13.6945546 4.3573444,13.6288087 4.28,13.54 L4.29,13.54 Z" id="Shape"></path>
                <path d="M17.84,15.75 L18.15,16.46 C18.3663669,16.3050293 18.6239801,16.2179978 18.89,16.21 C19.1141086,16.2226141 19.3357941,16.2629205 19.55,16.33 C19.7795355,16.4058825 20.0184691,16.4496309 20.26,16.46 C20.4054025,16.4597555 20.5500844,16.4395673 20.69,16.4 C20.8254952,16.3656642 20.9564177,16.3153094 21.08,16.25 L20.76,15.55 C20.5725526,15.6424969 20.3686147,15.6968804 20.16,15.71 C19.9940329,15.6967276 19.8298509,15.6665718 19.67,15.62 L19.42,15.56 L19.24,15.56 C19.0992254,15.557506 18.9595109,15.5847674 18.83,15.64 C18.9718746,15.4828787 19.0928743,15.3081013 19.19,15.12 C19.2515028,14.9851099 19.2822445,14.8382326 19.28,14.69 C19.2849577,14.6468085 19.2849577,14.6031915 19.28,14.56 L20.07,14.56 L20.07,13.9 L19.15,13.9 C19.106035,13.778955 19.0693036,13.6554038 19.04,13.53 C19.0286259,13.420294 19.0286259,13.309706 19.04,13.2 C19.0355342,13.0502441 19.0934862,12.9053641 19.2,12.8 C19.3000653,12.6917941 19.4427724,12.6332476 19.59,12.64 C19.7267799,12.6371634 19.8593584,12.6873282 19.96,12.78 C20.0767105,12.9073824 20.1502062,13.068373 20.17,13.24 L20.97,13.12 C20.9410369,12.7941655 20.791216,12.4909566 20.55,12.27 C20.2816412,12.0636217 19.9479873,11.9606859 19.61,11.98 C19.3684341,11.9775095 19.1293348,12.028745 18.91,12.13 C18.7000586,12.2235342 18.5250555,12.381037 18.41,12.58 C18.2933468,12.7621402 18.230917,12.9737081 18.23,13.19 C18.2299921,13.4317139 18.2705556,13.6717147 18.35,13.9 L17.89,13.9 L17.89,14.56 L18.5,14.56 C18.5048254,14.6165639 18.5048254,14.6734361 18.5,14.73 C18.4941321,14.9099815 18.4425087,15.0855011 18.35,15.24 C18.2224676,15.4477376 18.0477376,15.6224676 17.84,15.75 Z" id="Path"></path>
                <path d="M12.84,19 L12.24,20.26 C12.1725958,20.3942269 12.1189879,20.5349479 12.08,20.68 C12.08,20.56 11.99,20.42 11.92,20.26 L11.32,19 L10.41,19 L11.33,20.87 L10.56,20.87 L10.56,21.53 L11.66,21.53 L11.66,21.88 L10.56,21.88 L10.56,22.54 L11.66,22.54 L11.66,23.35 L12.49,23.35 L12.49,22.54 L13.61,22.54 L13.61,21.88 L12.49,21.88 L12.49,21.53 L13.61,21.53 L13.61,20.9 L12.82,20.9 L13.75,19 L12.84,19 Z" id="Path"></path>
            </g>
        </g>
    </g>
</svg>