<?xml version="1.0" encoding="UTF-8"?>
<svg width="26px" height="30px" viewBox="0 0 26 30" version="1.1" xmlns="http://www.w3.org/2000/svg" xmlns:xlink="http://www.w3.org/1999/xlink">
    <!-- Generator: Sketch 62 (91390) - https://sketch.com -->
    <title>treasury</title>
    <desc>Created with Sketch.</desc>
    <g id="Page-1" stroke="none" stroke-width="1" fill="none" fill-rule="evenodd">
        <g id="Artboard-Copy-3" transform="translate(-110.000000, -505.000000)" fill="#414141" fill-rule="nonzero">
            <g id="treasury" transform="translate(110.000000, 505.000000)">
                <path d="M24.1057143,29.304 L1.67142857,29.304 C0.751131312,29.2974651 0.00674237521,28.5759804 0,27.684 L0,25.92 C0.00499162116,25.0595011 0.698468134,24.3506048 1.5847619,24.3 L1.5847619,12.012 L5.76952381,13.692 L5.76952381,24.3 L24.1057143,24.3 C24.5490047,24.3 24.9741391,24.4706781 25.2875928,24.774487 C25.6010464,25.0782959 25.7771429,25.4903493 25.7771429,25.92 L25.7771429,27.684 C25.7704005,28.5759804 25.0260115,29.2974651 24.1057143,29.304 L24.1057143,29.304 Z M1.67142857,25.5 C1.43210518,25.5 1.23809524,25.6880404 1.23809524,25.92 L1.23809524,27.684 C1.23809524,27.9159596 1.43210518,28.104 1.67142857,28.104 L24.1057143,28.104 C24.2206414,28.104 24.3308615,28.0597501 24.4121272,27.9809848 C24.493393,27.9022196 24.5390476,27.7953909 24.5390476,27.684 L24.5390476,25.92 C24.5390476,25.6880404 24.3450377,25.5 24.1057143,25.5 L4.53142857,25.5 L4.53142857,14.496 L2.82285714,13.812 L2.82285714,25.5 L1.67142857,25.5 Z" id="Shape"></path>
                <path d="M24.3409524,22.98 L20.1561905,21.312 L20.1561905,10.656 L1.5847619,10.656 C0.906479442,10.656928 0.306613156,10.2296662 0.104945281,9.60198311 C-0.0967225944,8.97430005 0.146808304,8.29248248 0.705714286,7.92 L12.1085714,0.312 C12.6398586,-0.0352068376 13.3353795,-0.0352068376 13.8666667,0.312 L25.2695238,7.92 C25.8324235,8.29492489 26.0751893,8.98316462 25.8669235,9.61362423 C25.6586576,10.2440838 25.0486098,10.6676751 24.3657143,10.656 L24.3657143,10.656 L24.3409524,22.98 Z M21.3942857,20.508 L23.1028571,21.192 L23.1028571,9.456 L24.3409524,9.456 C24.4796662,9.46301744 24.6062162,9.37961128 24.6504762,9.252 C24.6917262,9.12224638 24.641664,8.98153301 24.5266667,8.904 L13.1361905,1.248 C13.0326077,1.17589742 12.8931065,1.17589742 12.7895238,1.248 L1.37428571,8.844 C1.25568936,8.91770316 1.2034061,9.05973182 1.24708229,9.18955091 C1.29075849,9.31937001 1.41937422,9.4042249 1.56,9.396 L21.3695238,9.396 L21.3942857,20.508 Z" id="Shape"></path>
                <path d="M13.0742857,22.656 C10.1545403,22.656 7.78761905,20.3619071 7.78761905,17.532 C7.78761905,14.7020929 10.1545403,12.408 13.0742857,12.408 C15.9940311,12.408 18.3609524,14.7020929 18.3609524,17.532 C18.3609524,20.3619071 15.9940311,22.656 13.0742857,22.656 Z M13.0742857,13.608 C10.8383215,13.608 9.02571429,15.3648346 9.02571429,17.532 C9.02571429,19.6991654 10.8383215,21.456 13.0742857,21.456 C15.31025,21.456 17.1228571,19.6991654 17.1228571,17.532 C17.1025298,15.3769481 15.2978349,13.6384805 13.0742857,13.632 L13.0742857,13.608 Z" id="Shape"></path>
                <path d="M13.0990476,15.012 C13.1595112,15.0340094 13.1957095,15.0941543 13.1857143,15.156 L13.1857143,15.456 C13.1857143,15.456 13.1857143,15.456 13.1857143,15.456 C13.4951844,15.470163 13.7929926,15.5747445 14.04,15.756 C14.2510856,15.9026322 14.3970616,16.12129 14.4485714,16.368 C14.4546585,16.4158187 14.4546585,16.4641813 14.4485714,16.512 C14.4485714,16.572 14.4485714,16.608 14.3371429,16.62 C14.2801303,16.620342 14.232048,16.5789174 14.2257143,16.524 C14.1995507,16.1326331 13.9047008,15.807438 13.507619,15.732 L13.1733333,15.66 C13.1733333,15.66 13.1733333,15.66 13.1733333,15.66 L13.1733333,17.4 C13.1733333,17.4 13.1733333,17.4 13.1733333,17.46 C13.3926928,17.5274562 13.6076817,17.6076 13.8171429,17.7 C14.0893696,17.8181923 14.2996944,18.0393948 14.3990476,18.312 C14.5149989,18.6223712 14.4326518,18.9697938 14.1885714,19.2 C13.9586069,19.4351175 13.6529898,19.5874559 13.3219048,19.632 L13.1733333,19.632 C13.1733333,19.632 13.1733333,19.632 13.1733333,19.632 L13.1733333,19.92 C13.1688522,19.9579648 13.1459838,19.9915914 13.1117529,20.01055 C13.0775219,20.0295087 13.0360215,20.0315326 13,20.016 C12.98411,19.9816472 12.98411,19.9423528 13,19.908 L13,19.644 C13,19.644 13,19.644 13,19.644 C12.6941779,19.6304594 12.400138,19.5256827 12.1580952,19.344 C11.9367733,19.1994602 11.7849956,18.9744721 11.7371429,18.72 C11.7310406,18.6802186 11.7310406,18.6397814 11.7371429,18.6 C11.7371429,18.528 11.7371429,18.48 11.8361905,18.48 C11.8645292,18.4765387 11.89303,18.4851031 11.9143781,18.5034954 C11.9357263,18.5218876 11.9478432,18.5483169 11.947619,18.576 C11.9798254,18.914818 12.2115425,19.20491 12.5419048,19.32 C12.6875636,19.3798 12.842276,19.4162749 13,19.428 C13,19.428 13,19.428 13,19.428 L13,17.676 C13,17.676 13,17.676 13,17.616 C12.7827729,17.5538097 12.571508,17.47351 12.3685714,17.376 C12.1083435,17.269679 11.9031229,17.0664488 11.7990476,16.812 C11.6559008,16.4785626 11.7452026,16.093878 12.0219048,15.852 C12.2501506,15.6340999 12.5459677,15.4949588 12.8638095,15.456 L12.9628571,15.456 C12.9628571,15.456 12.9628571,15.456 12.9628571,15.456 L12.9628571,15.216 C12.9628571,15.144 12.9628571,15.096 13.0371429,15.072 L13.0990476,15.012 Z M13.1857143,18.612 L13.1857143,19.452 C13.1857143,19.452 13.1857143,19.452 13.1857143,19.452 L13.3590476,19.452 C13.6124956,19.4100048 13.8461661,19.2925704 14.027619,19.116 C14.2428917,18.9228765 14.3031404,18.6163031 14.1761905,18.36 C14.0915705,18.1900925 13.9526154,18.0512042 13.78,17.964 C13.5914105,17.8756916 13.397021,17.7995265 13.1980952,17.736 C13.1980952,17.736 13.1980952,17.736 13.1980952,17.736 L13.1857143,18.612 Z M12.9628571,16.524 L12.9628571,15.696 C12.9628571,15.696 12.9628571,15.696 12.9628571,15.696 L12.7895238,15.696 C12.522604,15.7430261 12.2790092,15.8737241 12.0961905,16.068 C11.9159,16.239611 11.8532984,16.4963145 11.9352381,16.728 C12.0153875,16.9235355 12.164567,17.0851355 12.3561905,17.184 C12.5424126,17.2773921 12.7372268,17.3537236 12.9380952,17.412 C12.9380952,17.412 13,17.412 13,17.412 L12.9628571,16.524 Z" id="Shape"></path>
                <path d="M13.0742857,20.352 C13.0137253,20.3696835 12.9491319,20.3696835 12.8885714,20.352 C12.7763986,20.2864326 12.7099691,20.1668595 12.7152381,20.04 L12.7152381,19.896 C12.4304978,19.8559045 12.1615671,19.7441949 11.9352381,19.572 C11.6636686,19.3929807 11.4766136,19.1167148 11.4152381,18.804 C11.4091141,18.7441468 11.4091141,18.6838532 11.4152381,18.624 C11.4147881,18.4408003 11.5609577,18.288634 11.7495238,18.276 C11.9409871,18.27507 12.1018082,18.4153555 12.1209524,18.6 C12.1209524,18.84 12.2695238,18.996 12.5666667,19.14 L12.727619,19.14 L12.727619,17.856 C12.5390766,17.8017265 12.3565867,17.7293686 12.1828571,17.64 C11.8684625,17.5024129 11.6203634,17.2533596 11.4895238,16.944 C11.3205328,16.5253222 11.4335532,16.0490487 11.7742857,15.744 C12.0301823,15.4925081 12.3660093,15.3318748 12.727619,15.288 L12.727619,15.228 C12.7088998,15.0698867 12.7995187,14.9186228 12.9504762,14.856 L13.1114286,14.856 L13.2228571,14.856 C13.3665843,14.9200246 13.4550649,15.0629548 13.4457143,15.216 L13.4457143,15.288 C13.7328881,15.3326421 14.0047077,15.4437875 14.2380952,15.612 C14.5049959,15.7932677 14.6873921,16.0692232 14.7457143,16.38 C14.7518383,16.4398532 14.7518383,16.5001468 14.7457143,16.56 C14.7397618,16.7451767 14.5897766,16.8957388 14.3990476,16.908 C14.210032,16.9084362 14.0530351,16.7667641 14.04,16.584 C14.04,16.296 13.8542857,16.14 13.4704762,16.008 L13.4704762,16.008 L13.4704762,17.4 C13.6574341,17.4585543 13.8395432,17.5307611 14.0152381,17.616 C14.3438846,17.7561588 14.5989316,18.0207056 14.7209524,18.348 C14.8688245,18.7468822 14.7622989,19.1927254 14.4485714,19.488 C14.186439,19.7507572 13.8430464,19.92349 13.4704762,19.98 L13.4704762,20.088 C13.4704762,20.2801951 13.3097251,20.436 13.1114286,20.436 L13.0742857,20.352 Z M13.4333333,18.048 L13.4333333,19.188 C13.6067,19.1456143 13.7649962,19.0585349 13.8914286,18.936 C14.0367527,18.8133119 14.077554,18.6106396 13.9904762,18.444 C13.9258201,18.3267193 13.8267182,18.2306667 13.7057143,18.168 L13.4333333,18.048 Z M12.7152381,15.936 C12.5319219,15.9693771 12.3659039,16.0625354 12.2447619,16.2 C12.1254345,16.3114951 12.0821784,16.4791957 12.1333333,16.632 C12.1941905,16.7717912 12.3037286,16.8864523 12.4428571,16.956 L12.7152381,17.064 L12.7152381,15.936 Z" id="Shape"></path>
            </g>
        </g>
    </g>
</svg>