<svg xmlns="http://www.w3.org/2000/svg" width="16" height="16" viewBox="0 0 16 16"><defs><style>.a{fill:none;}.b{fill:#939393;stroke:rgba(0,0,0,0);stroke-miterlimit:10;}</style></defs><rect class="a" width="16" height="16"/><path class="b" d="M4.25,13.545.327,9.342A1.258,1.258,0,0,1,.02,8.265a.891.891,0,0,1,.095-.287H9.957a.849.849,0,0,1,.094.287,1.258,1.258,0,0,1-.306,1.076l-3.924,4.2a1.058,1.058,0,0,1-1.571,0ZM.722,8.917l3.919,4.209a.537.537,0,0,0,.791,0L9.349,8.917a.6.6,0,0,0,.157-.34H.566A.6.6,0,0,0,.722,8.917ZM.055,5.381A1.137,1.137,0,0,1,.344,4.3L4.25.33a1.1,1.1,0,0,1,1.571,0L9.733,4.3a1.148,1.148,0,0,1,.283,1.079Z" transform="translate(3 1)"/></svg>