<svg id="update_black_24dp" xmlns="http://www.w3.org/2000/svg" width="14" height="14.001" viewBox="0 0 14 14.001">
  <g id="Group_21055" data-name="Group 21055">
    <g id="Group_21054" data-name="Group 21054">
      <g id="Group_21053" data-name="Group 21053">
        <path id="Path_9179" data-name="Path 9179" d="M17,8.538H11.728l2.131-2.193a5.475,5.475,0,0,0-7.685-.078,5.348,5.348,0,0,0,0,7.615,5.46,5.46,0,0,0,7.685,0,5.066,5.066,0,0,0,1.587-3.8H17a7.266,7.266,0,0,1-2.053,4.893,7.042,7.042,0,0,1-9.894,0,6.876,6.876,0,0,1-.016-9.785,6.991,6.991,0,0,1,9.84,0L17,3ZM10.39,6.889v3.306l2.722,1.618-.56.941L9.223,10.778V6.889Z" transform="translate(-3.001 -3)" fill="#626262"/>
      </g>
    </g>
  </g>
</svg>
