<?xml version="1.0" encoding="UTF-8"?>
<svg width="20px" height="21px" viewBox="0 0 20 21" version="1.1" xmlns="http://www.w3.org/2000/svg" xmlns:xlink="http://www.w3.org/1999/xlink">
    <title>Asset 1</title>
    <g id="Page-1" stroke="none" stroke-width="1" fill="none" fill-rule="evenodd">
        <g id="Asset-1" transform="translate(0.000000, 1.000000)" fill="#707070" stroke="#707070" stroke-width="0.75">
            <path d="M14.26,12.0380952 C14.822475,11.4468027 15.7037156,11.2366974 16.4923667,11.5058545 C17.2810178,11.7750117 17.8215648,12.470356 17.8616852,13.2673073 C17.9018057,14.0642585 17.4335884,14.8056651 16.6755927,15.1454454 C15.917597,15.4852258 15.0192927,15.3563782 14.4,14.8190476 C13.561894,14.0848462 13.4994918,12.8452927 14.26,12.0380952 M17.94,11.0857143 C16.7356764,10.0333904 14.8922342,10.0145269 13.6644475,11.0419635 C12.4366608,12.0694001 12.2191638,13.8128989 13.16,15.0857143 L12.39,15.8190476 L12.19,15.6285714 L9.45,18.2571429 L10.66,19.4095238 L13.39,16.7904762 L13.19,16.6 L13.96,15.8666667 C14.853164,16.5471726 16.0596794,16.722179 17.1250635,16.3257627 C18.1904477,15.9293464 18.9528433,15.0217325 19.1250635,13.9448103 C19.2972837,12.8678881 18.853164,11.7852678 17.96,11.1047619 L17.94,11.0857143 Z M12.84,5.52380952 C12.89,2.85714286 11.25,0.361904762 8.17,0.361904762 C5.09,0.361904762 3.44,2.85714286 3.5,5.52380952 C3.45566213,7.263691 4.30233204,8.91546993 5.77,9.95238095 L5.77,9.95238095 C4.3465885,9.94640048 2.96367414,10.4033401 1.85,11.247619 C0.839282133,12.1269753 0.299160579,13.3937327 0.38,14.6952381 L0.38,17.7238095 L9.25,17.7238095 L10.42,16.6095238 L1.55,16.6095238 L1.55,14.7047619 C1.48591959,13.7338102 1.88226357,12.7866389 2.63,12.1238095 C3.5935505,11.4171558 4.78443767,11.0503148 6,11.0857143 L7,11.0857143 L7,9.34285714 C5.53883704,8.59154711 4.65424937,7.11353931 4.72,5.53333333 C4.72,3.48571429 5.82,1.5047619 8.23,1.5047619 C10.64,1.5047619 11.77,3.48571429 11.73,5.53333333 C11.8030374,7.11522397 10.916398,8.59666 9.45,9.34285714 L9.45,11.0571429 L10.45,11.0571429 C11.2085598,11.0687126 11.9594275,11.2040041 12.67,11.4571429 C12.7888168,11.2734475 12.9261313,11.1012063 13.08,10.9428571 C13.2033882,10.8126287 13.3371164,10.6916366 13.48,10.5809524 C12.5801245,10.1921488 11.6077701,9.97844458 10.62,9.95238095 L10.62,9.95238095 C12.0701676,8.90631003 12.8977081,7.25548905 12.84,5.52380952 Z" id="Shape"></path>
        </g>
    </g>
</svg>