<?xml version="1.0" encoding="UTF-8"?>
<svg width="26px" height="26px" viewBox="0 0 26 26" version="1.1" xmlns="http://www.w3.org/2000/svg" xmlns:xlink="http://www.w3.org/1999/xlink">
    <title>Group 7</title>
    <g id="Page-1" stroke="none" stroke-width="1" fill="none" fill-rule="evenodd">
        <g id="Group-7" transform="translate(1.000000, 1.000000)" stroke="#000000">
            <path d="M0.479808,4.314432 L0.479808,2.153472 C0.479808,1.228992 1.228608,0.480192 2.153088,0.480192 L21.846528,0.480192 C22.771008,0.480192 23.519808,1.228992 23.519808,2.153472 L23.519808,21.844992 C23.519808,22.769472 22.771008,23.519232 21.846528,23.520192 L16.322688,23.520192" id="Stroke-1" stroke-linecap="round" stroke-linejoin="round"></path>
            <path d="M7.043232,14.322336 C8.532192,15.237216 10.248672,15.716256 11.995872,15.703776 C14.900832,15.770976 17.649312,14.395296 19.339872,12.031776 C16.296672,7.974816 10.541472,7.153056 6.485472,10.197216 C5.790432,10.719456 5.173152,11.336736 4.651872,12.031776" id="Stroke-3" stroke-linecap="round" stroke-linejoin="round"></path>
            <path d="M11.99424,10.308864 C12.94464,10.308864 13.71552,11.079744 13.71552,12.030144 C13.71552,12.980544 12.94464,13.751424 11.99424,13.751424 C11.04384,13.751424 10.27392,12.980544 10.27392,12.030144 C10.27392,11.079744 11.04384,10.308864 11.99424,10.308864 Z" id="Stroke-5"></path>
        </g>
    </g>
</svg>