<svg width="20" height="19" viewBox="0 0 20 19" fill="none" xmlns="http://www.w3.org/2000/svg">
<path d="M8 17.9412H2C1.44772 17.9412 1 17.4935 1 16.9412V2C1 1.44772 1.44772 1 2 1H17.4375C17.9898 1 18.4375 1.44772 18.4375 2V12" stroke="#6A6A6A" stroke-width="2"/>
<line x1="4" y1="6" x2="14.125" y2="6" stroke="#6A6A6A" stroke-width="2"/>
<line x1="4" y1="9" x2="14.125" y2="9" stroke="#6A6A6A" stroke-width="2"/>
<line x1="4" y1="12" x2="8" y2="12" stroke="#6A6A6A" stroke-width="2"/>
<path d="M8.11531 14.835C9.4118 13.0379 10.9614 11.3749 13.5 11.3749C16.0386 11.3749 17.5882 13.0379 18.8847 14.835C18.9599 14.9394 19 15.062 19 15.1874C19 15.3129 18.9599 15.4355 18.8847 15.5399C17.5882 17.337 16.0386 19 13.5 19C10.9614 19 9.4118 17.337 8.11531 15.5399C8.04012 15.4355 7.99999 15.3129 7.99999 15.1874C7.99999 15.062 8.04012 14.9394 8.11531 14.835V14.835ZM13.5 17.7291C14.959 17.7291 16.0977 17.01 17.4801 15.1874C16.0977 13.3649 14.959 12.6457 13.5 12.6457C12.041 12.6457 10.9023 13.3649 9.5199 15.1874C10.9023 17.01 12.041 17.7291 13.5 17.7291Z" fill="#6A6A6A"/>
<path d="M13.5 13.9166C13.7719 13.9166 14.0378 13.9912 14.2639 14.1308C14.49 14.2704 14.6663 14.4689 14.7703 14.7011C14.8744 14.9333 14.9016 15.1889 14.8486 15.4354C14.7955 15.6819 14.6646 15.9083 14.4723 16.086C14.28 16.2638 14.035 16.3848 13.7682 16.4338C13.5015 16.4829 13.2251 16.4577 12.9738 16.3615C12.7226 16.2653 12.5078 16.1025 12.3567 15.8935C12.2056 15.6845 12.125 15.4388 12.125 15.1874C12.1255 14.8505 12.2705 14.5276 12.5283 14.2893C12.786 14.0511 13.1355 13.9171 13.5 13.9166V13.9166Z" fill="#6A6A6A"/>
</svg>