<?xml version="1.0" encoding="UTF-8"?>
<svg width="19px" height="20px" viewBox="0 0 19 20" version="1.1" xmlns="http://www.w3.org/2000/svg" xmlns:xlink="http://www.w3.org/1999/xlink">
    <title>Group 8</title>
    <defs>
        <polygon id="path-1" points="0 0 18.17 0 18.17 20 0 20"></polygon>
    </defs>
    <g id="Page-1" stroke="none" stroke-width="1" fill="none" fill-rule="evenodd">
        <g id="Group-8">
            <path d="M12.04,4.487 C11.704,4.151 11.178,4.151 10.841,4.487 L8.297,7.011 L7.329,6.043 C6.993,5.707 6.467,5.707 6.13,6.043 C5.794,6.38 5.794,6.906 6.13,7.242 L7.708,8.819 C7.876,8.988 8.086,9.072 8.297,9.072 C8.507,9.072 8.738,8.988 8.885,8.819 L12.04,5.686 C12.376,5.349 12.376,4.802 12.04,4.487" id="Fill-1" fill="#707070"></path>
            <path d="M5.0683,11.7771 L13.0813,11.7771 C13.5433,11.7771 13.9223,11.3981 13.9223,10.9361 C13.9223,10.4731 13.5433,10.0951 13.0813,10.0951 L5.0683,10.0951 C4.6053,10.0951 4.2273,10.4731 4.2273,10.9361 C4.2273,11.3981 4.6053,11.7771 5.0683,11.7771" id="Fill-3" fill="#707070"></path>
            <g id="Group-7">
                <mask id="mask-2" fill="white">
                    <use xlink:href="#path-1"></use>
                </mask>
                <g id="Clip-6"></g>
                <path d="M13.6698,17.96 C13.6068,18.023 13.5228,18.086 13.4388,18.128 L13.4388,15.226 L16.3408,15.226 C16.2988,15.31 16.2358,15.394 16.1728,15.457 L13.6698,17.96 Z M2.7338,18.296 L2.7338,18.296 C2.4608,18.296 2.1868,18.191 1.9978,18.002 C1.8088,17.813 1.7038,17.539 1.7038,17.266 L1.7038,2.734 C1.7038,2.166 2.1658,1.703 2.7338,1.703 L15.4368,1.703 C16.0038,1.703 16.4668,2.166 16.4668,2.734 L16.4668,13.544 L12.8708,13.544 C12.2398,13.544 11.7348,14.048 11.7348,14.679 L11.7348,18.275 L2.7338,18.296 Z M15.4368,0 L2.7338,0 C1.2408,0 -0.0002,1.22 -0.0002,2.734 L-0.0002,17.266 C-0.0002,18.002 0.2948,18.675 0.7988,19.201 C1.3038,19.706 1.9978,20 2.7338,20 L12.9338,19.979 C13.6698,19.979 14.3428,19.685 14.8688,19.18 L17.3708,16.677 C17.8758,16.172 18.1708,15.478 18.1708,14.742 L18.1708,2.734 C18.1708,1.22 16.9508,0 15.4368,0 L15.4368,0 Z" id="Fill-5" fill="#707070" mask="url(#mask-2)"></path>
            </g>
        </g>
    </g>
</svg>