<?xml version="1.0" encoding="UTF-8"?>
<svg width="24px" height="25px" viewBox="0 0 24 25" version="1.1" xmlns="http://www.w3.org/2000/svg" xmlns:xlink="http://www.w3.org/1999/xlink">
    <title>Group 13</title>
    <g id="Page-1" stroke="none" stroke-width="1" fill="none" fill-rule="evenodd">
        <g id="Group-13">
            <path d="M15.26784,7.35626674 C15.10176,7.35535385 14.9424,7.4172 14.82432,7.52889231 C14.43744,7.90181538 14.05248,8.27843077 13.66368,8.65227692 C13.6176,8.69658462 13.63296,8.71873846 13.66368,8.75473846 C14.4432,9.50889231 15.2208,10.2630462 15.99648,11.0199692 C16.03968,11.0615077 16.06272,11.0707385 16.10976,11.0199692 C16.48896,10.6479692 16.87296,10.2815077 17.25024,9.91227692 C17.5056,9.66950769 17.50848,9.27443077 17.25696,9.02889231 C17.25408,9.02704615 17.25216,9.0252 17.25024,9.02335385 C16.74528,8.52581538 16.23552,8.03566154 15.72768,7.54273846 C15.6048,7.42273846 15.4368,7.35626674 15.26208,7.35626674" id="Fill-1" fill="#010101"></path>
            <path d="M8.723616,17.9518154 C8.743776,17.9287385 8.763936,17.9038154 8.786976,17.8807385 C10.763616,15.8979692 12.742176,13.9133538 14.720736,11.9278154 C14.781216,11.8696615 14.787936,11.8392 14.720736,11.7745846 C14.078496,11.1367385 13.439136,10.4942769 12.802656,9.84996923 C12.743136,9.79181538 12.718176,9.79735385 12.658656,9.84996923 C10.680096,11.8373538 8.700576,13.8219692 6.719136,15.8028923 C6.697056,15.8268923 6.673056,15.8462769 6.648096,15.8684308 L6.648096,17.8687385 C6.648096,17.9296615 6.663456,17.9435077 6.722016,17.9425846 L8.723616,17.9425846" id="Fill-3" fill="#000000"></path>
            <g id="Group-8" transform="translate(0.000000, 0.230769)">
                <path d="M11.640672,22.9602462 C5.278752,22.9602462 0.120672,18.0024 0.120672,11.8851692 C0.119712,5.76793846 5.275872,0.808246154 11.637792,0.807323077 C15.232992,0.807323077 18.621792,2.42086154 20.800992,5.17070769 C20.943072,5.35070769 20.909472,5.6064 20.725152,5.74670769 C20.542752,5.88332308 20.279712,5.85286154 20.136672,5.67747692 C20.135712,5.67563077 20.133792,5.67378462 20.131872,5.67193846 C16.559712,1.15809231 9.857952,0.283938462 5.163552,3.71870769 C0.469152,7.15347692 -0.439968,13.5974769 3.132192,18.1113231 C6.704352,22.6251692 13.406112,23.4993231 18.100512,20.0645538 C20.756832,18.1205538 22.315872,15.0947077 22.312992,11.8851692 C22.312992,11.6608615 22.503072,11.4780923 22.736352,11.4780923 C22.970592,11.4780923 23.1606741,11.6608615 23.1606741,11.8851692 C23.164512,17.9977846 18.015072,22.9574769 11.657952,22.9611692 L11.640672,22.9611692" id="Fill-5" fill="#000000"></path>
                <path d="M11.640672,22.9602462 C5.278752,22.9602462 0.120672,18.0024 0.120672,11.8851692 C0.119712,5.76793846 5.275872,0.808246154 11.637792,0.807323077 C15.232992,0.807323077 18.621792,2.42086154 20.800992,5.17070769 C20.943072,5.35070769 20.909472,5.6064 20.725152,5.74670769 C20.542752,5.88332308 20.279712,5.85286154 20.136672,5.67747692 C20.135712,5.67563077 20.133792,5.67378462 20.131872,5.67193846 C16.559712,1.15809231 9.857952,0.283938462 5.163552,3.71870769 C0.469152,7.15347692 -0.439968,13.5974769 3.132192,18.1113231 C6.704352,22.6251692 13.406112,23.4993231 18.100512,20.0645538 C20.756832,18.1205538 22.315872,15.0947077 22.312992,11.8851692 C22.312992,11.6608615 22.503072,11.4780923 22.736352,11.4780923 C22.970592,11.4780923 23.1606741,11.6608615 23.1606741,11.8851692 C23.164512,17.9977846 18.015072,22.9574769 11.657952,22.9611692 L11.640672,22.9611692" id="Stroke-7" stroke="#000000" stroke-width="0.25"></path>
            </g>
            <g id="Group-12" transform="translate(15.360000, 0.230769)">
                <path d="M5.545056,5.97886154 C5.510496,5.98255385 5.475936,5.98255385 5.441376,5.97886154 L1.016736,5.56347692 C0.784416,5.53763077 0.615456,5.33824615 0.636576,5.11393846 C0.655776,4.89147692 0.859296,4.72624615 1.090656,4.74470769 C1.092576,4.74470769 1.095456,4.74563077 1.097376,4.74563077 L4.929696,5.1084 L3.997536,1.4004 C3.944736,1.18163077 4.082016,0.961938462 4.307616,0.904707692 C4.536096,0.856707692 4.761696,0.990553846 4.819296,1.2084 L5.891616,5.47763077 C5.924256,5.60686154 5.890656,5.74255385 5.801376,5.84316923 C5.736096,5.91793846 5.644896,5.96686154 5.545056,5.98163077" id="Fill-9" fill="#000000"></path>
                <path d="M5.545056,5.97886154 C5.510496,5.98255385 5.475936,5.98255385 5.441376,5.97886154 L1.016736,5.56347692 C0.784416,5.53763077 0.615456,5.33824615 0.636576,5.11393846 C0.655776,4.89147692 0.859296,4.72624615 1.090656,4.74470769 C1.092576,4.74470769 1.095456,4.74563077 1.097376,4.74563077 L4.929696,5.1084 L3.997536,1.4004 C3.944736,1.18163077 4.082016,0.961938462 4.307616,0.904707692 C4.536096,0.856707692 4.761696,0.990553846 4.819296,1.2084 L5.891616,5.47763077 C5.924256,5.60686154 5.890656,5.74255385 5.801376,5.84316923 C5.736096,5.91793846 5.644896,5.96686154 5.545056,5.98163077" id="Stroke-11" stroke="#000000" stroke-width="0.25"></path>
            </g>
        </g>
    </g>
</svg>