<?xml version="1.0" encoding="UTF-8"?>
<svg width="18px" height="16px" viewBox="0 0 18 16" version="1.1" xmlns="http://www.w3.org/2000/svg" xmlns:xlink="http://www.w3.org/1999/xlink">
    <title>Approve</title>
    <g id="Page-1" stroke="none" stroke-width="1" fill="none" fill-rule="evenodd">
        <g id="Approve" transform="translate(1.000000, 1.000000)" fill="#737274" fill-rule="nonzero" stroke="#737274" stroke-width="0.75">
            <path d="M7.16,10.0900229 C6.88283494,10.0891084 6.61847178,9.97322316 6.43,9.77 L2.37,5.6 C1.82135002,5.01520638 1.82135002,4.10479362 2.37,3.52 L2.55,3.34 L2.64,3.17 L2.73,3.17 C3.29235502,2.71450169 4.11012149,2.76669955 4.61,3.29 L7.16,5.92 L12.53,0.39 C12.7711527,0.140702869 13.1031518,-5.61815485e-05 13.45,-5.61815485e-05 C13.7968482,-5.61815485e-05 14.1288473,0.140702869 14.37,0.39 L14.78,0.81 C15.284127,1.33914918 15.284127,2.17085082 14.78,2.7 L7.9,9.77 C7.70916552,9.97578076 7.44064197,10.0918991 7.16,10.0900229 Z M3.16,3.86 L2.93,4.1 C2.68104851,4.35614207 2.68104851,4.76385793 2.93,5.02 L7,9.2 C7.09920076,9.29028154 7.25079924,9.29028154 7.35,9.2 L14.22,2.12 C14.4019445,1.91830214 14.4019445,1.61169786 14.22,1.41 L13.81,1 C13.6109763,0.801663783 13.2890237,0.801663783 13.09,1 L7.16,7.07 L4.05,3.87 C3.93409189,3.75117324 3.77597022,3.68289343 3.61,3.68 L3.61,3.68 C3.44480574,3.67685854 3.28562702,3.7419771 3.17,3.86 L3.16,3.86 Z" id="Shape"></path>
            <path d="M14.84,14 L1.16,14 C0.847937679,13.9973785 0.549854572,13.8701962 0.332020205,13.6467282 C0.114185839,13.4232602 -0.00534559778,13.1220275 3.0428134e-16,12.81 L3.0428134e-16,11.44 C-0.00534951727,11.1270315 0.113869597,10.8247609 0.331421377,10.5997073 C0.548973156,10.3746538 0.847030001,10.2452596 1.16,10.24 L14.84,10.24 C15.15297,10.2452596 15.4510268,10.3746538 15.6685786,10.5997073 C15.8861304,10.8247609 16.0053495,11.1270315 16,11.44 L16,12.81 C16.0053456,13.1220275 15.8858142,13.4232602 15.6679798,13.6467282 C15.4501454,13.8701962 15.1520623,13.9973785 14.84,14 Z M1.16,11.06 C1.06185795,11.0626166 0.968779428,11.1041312 0.90125877,11.175403 C0.833738112,11.2466749 0.797311694,11.3418599 0.7998611,11.44 L0.7998611,12.81 C0.7998611,13.010503 0.959570258,13.174581 1.16,13.18 L14.84,13.18 C15.0404297,13.174581 15.2001389,13.010503 15.2001389,12.81 L15.2001389,11.44 C15.2026883,11.3418599 15.1662619,11.2466749 15.0987412,11.175403 C15.0312206,11.1041312 14.9381421,11.0626166 14.84,11.06 L1.16,11.06 Z" id="Shape"></path>
        </g>
    </g>
</svg>