<?xml version="1.0" encoding="UTF-8"?>
<svg width="18px" height="20px" viewBox="0 0 18 20" version="1.1" xmlns="http://www.w3.org/2000/svg" xmlns:xlink="http://www.w3.org/1999/xlink">
    <title>assign</title>
    <defs>
        <path d="M16,2 L11.82,2 C11.4,0.84 10.3,0 9,0 C7.7,0 6.6,0.84 6.18,2 L2,2 C0.9,2 0,2.9 0,4 L0,18 C0,19.1 0.9,20 2,20 L16,20 C17.1,20 18,19.1 18,18 L18,4 C18,2.9 17.1,2 16,2 Z M9,1.75 C9.22,1.75 9.41,1.85 9.55,2 C9.67,2.13 9.75,2.31 9.75,2.5 C9.75,2.91 9.41,3.25 9,3.25 C8.59,3.25 8.25,2.91 8.25,2.5 C8.25,2.31 8.33,2.13 8.45,2 C8.59,1.85 8.78,1.75 9,1.75 Z M16,18 L2,18 L2,4 L16,4 L16,18 Z M9,5 C7.35,5 6,6.35 6,8 C6,9.65 7.35,11 9,11 C10.65,11 12,9.65 12,8 C12,6.35 10.65,5 9,5 Z M9,9 C8.45,9 8,8.55 8,8 C8,7.45 8.45,7 9,7 C9.55,7 10,7.45 10,8 C10,8.55 9.55,9 9,9 Z M3,15.47 L3,17 L15,17 L15,15.47 C15,12.97 11.03,11.89 9,11.89 C6.97,11.89 3,12.96 3,15.47 Z M5.31,15 C6,14.44 7.69,13.88 9,13.88 C10.31,13.88 12.01,14.44 12.69,15 L5.31,15 Z" id="path-1"></path>
    </defs>
    <g id="Page-1" stroke="none" stroke-width="1" fill="none" fill-rule="evenodd">
        <g id="assign">
            <mask id="mask-2" fill="white">
                <use xlink:href="#path-1"></use>
            </mask>
            <g id="path-1"></g>
            <g id="✱-Color-/-Material-/-Icons-/-Preview" mask="url(#mask-2)" fill="#000000" fill-opacity="0.54" fill-rule="nonzero">
                <g transform="translate(-3.000000, -2.000000)" id="Rectangle">
                    <rect x="0" y="0" width="24" height="24"></rect>
                </g>
            </g>
        </g>
    </g>
</svg>