<svg id="Component_174_2" data-name="Component 174 – 2" xmlns="http://www.w3.org/2000/svg" width="20" height="18" viewBox="0 0 20 18">
  <g id="Group_14940" data-name="Group 14940" transform="translate(-18.529 -67.72)">
    <path id="Path_4969" data-name="Path 4969" d="M36.529,67.72h-16a2.006,2.006,0,0,0-2,2v14a2.006,2.006,0,0,0,2,2h16a2.006,2.006,0,0,0,2-2v-14A2.006,2.006,0,0,0,36.529,67.72Zm0,16h-16v-14h16Z" fill="rgba(0,0,0,0.54)" fill-rule="evenodd"/>
    <path id="Path_4970" data-name="Path 4970" d="M35.939,75.14l-1.42-1.42-3.17,3.17-1.41-1.42-1.41,1.41,2.82,2.84Z" transform="translate(-1 1.5)" fill="rgba(0,0,0,0.54)" fill-rule="evenodd"/>
    <rect id="Rectangle_1644" data-name="Rectangle 1644" width="9" height="2" transform="translate(21.529 72.72)" fill="rgba(0,0,0,0.54)"/>
    <rect id="Rectangle_1645" data-name="Rectangle 1645" width="5" height="2" transform="translate(21.529 76.72)" fill="rgba(0,0,0,0.54)"/>
  </g>
</svg>
