<?xml version="1.0" encoding="utf-8"?>
<!-- Generator: Adobe Illustrator 24.1.0, SVG Export Plug-In . SVG Version: 6.00 Build 0)  -->
<svg version="1.1" id="Layer_1" xmlns="http://www.w3.org/2000/svg" xmlns:xlink="http://www.w3.org/1999/xlink" x="0px" y="0px"
	 viewBox="0 0 21 21" style="enable-background:new 0 0 21 21;" xml:space="preserve">
<style type="text/css">
	.st0{fill:#707070;}
	.st1{fill:#FFFFFF;}
</style>
<g id="Amend" transform="translate(0.358 0.36)">
	<g>
		<path class="st0" d="M20.7,10.2c0,2.8-1.1,5.5-3.1,7.4c-2,1.9-4.5,3-7.2,3h-0.2c-5.8,0-10.5-4.7-10.5-10.5
			c0-5.7,4.7-10.4,10.5-10.4c2.3,0,4.5,0.8,6.3,2.1l2,1.6l-1.3,1.3l-1.3-1.1C12.7,0.9,8.1,0.7,4.9,3.2C3,4.7,1.8,6.7,1.5,9
			c-0.3,2.3,0.3,4.6,1.7,6.4c3,3.8,8.4,4.5,12.2,1.6c2.2-1.6,3.4-4.1,3.4-6.9c0-0.5,0.4-0.9,0.9-0.9C20.2,9.3,20.7,9.7,20.7,10.2z"
			/>
	</g>
	<polygon class="st0" points="12.5,6.8 10,9.3 7.4,6.8 6,8.2 8.5,10.8 6,13.3 7.4,14.8 10,12.2 12.5,14.8 14,13.3 11.4,10.8 14,8.2 
			"/>
</g>
<path class="st0" d="M18,5.1l-1.3-3.9c-0.1-0.4,0.1-0.9,0.5-1v0c0.4-0.1,0.9,0.1,1,0.5l1.3,3.9c0.1,0.4-0.1,0.9-0.5,1v0
	C18.6,5.7,18.1,5.5,18,5.1z"/>
<path class="st0" d="M18.7,5.6l-4.1-0.3c-0.4,0-0.8-0.4-0.7-0.9v0c0-0.4,0.4-0.8,0.9-0.7L18.8,4c0.4,0,0.8,0.4,0.7,0.9v0
	C19.5,5.3,19.1,5.7,18.7,5.6z"/>
</svg>
