<?xml version="1.0" encoding="UTF-8"?>
<svg width="28px" height="28px" viewBox="0 0 28 28" version="1.1" xmlns="http://www.w3.org/2000/svg" xmlns:xlink="http://www.w3.org/1999/xlink">
    <!-- Generator: Sketch 62 (91390) - https://sketch.com -->
    <title>MASTER Finastra Icons_9 Money-136_pink Copy</title>
    <desc>Created with Sketch.</desc>
    <g id="Page-1" stroke="none" stroke-width="1" fill="none" fill-rule="evenodd">
        <g id="Artboard-Copy-3" transform="translate(-315.000000, -329.000000)" fill="#414141" fill-rule="nonzero">
            <g id="MASTER-Finastra-Icons_9-Money-136_pink-Copy" transform="translate(315.000000, 329.000000)">
                <path d="M26.8,19.46 C26.6923045,19.2031876 26.3968124,19.0823045 26.14,19.19 C25.8831876,19.2976955 25.7623045,19.5931876 25.87,19.85 C26.6916844,21.6232294 26.4645901,23.7055695 25.28,25.26 C24.462112,26.3810884 23.1473788,27.030985 21.76,27 C19.94,27 18.1,27 16.31,27 L11.75,27 C10.1,27 8.39,27 6.75,27 C5.2237818,27.1048171 3.7387162,26.4773769 2.75,25.31 C1.7558459,23.9665781 1.4384023,22.2390943 1.89,20.63 C2.5225738,18.5667748 3.4886861,16.6210382 4.75,14.87 C6.1991897,12.5270943 8.0911276,10.4891002 10.32,8.87 C10.5094631,8.7519811 10.7268775,8.6864116 10.95,8.68 C12.95,8.68 15.05,8.68 17.11,8.68 C17.3331225,8.6864116 17.5505369,8.7519811 17.74,8.87 C19.983297,10.4666323 21.8727451,12.5092789 23.29,14.87 C23.81,15.7 24.29,16.48 24.68,17.25 C24.7639574,17.4089832 24.9263538,17.511099 25.106016,17.5178813 C25.2856782,17.5246636 25.4553112,17.4350822 25.551016,17.2828813 C25.6467207,17.1306805 25.6539574,16.9389832 25.57,16.78 C25.15,15.98 24.68,15.18 24.15,14.33 C22.6426928,11.8343531 20.633623,9.6788597 18.25,8 C17.8966784,7.7645337 17.4843991,7.6328815 17.06,7.62 C14.99,7.62 12.92,7.62 10.88,7.62 C10.4556009,7.6328815 10.0433216,7.7645337 9.69,8 C7.3479466,9.6985562 5.3606548,11.8387166 3.84,14.3 C2.5182511,16.1477406 1.5050848,18.1977137 0.84,20.37 C0.2946408,22.2782058 0.6639213,24.3314053 1.84,25.93 C2.986943,27.3128104 4.7151672,28.0788541 6.51,28 L6.74,28 C8.4,27.94 10.1,28 11.74,28 L16.31,28 C18.1,28 19.95,28 21.77,28 C23.4634793,28.0334432 25.0701949,27.2524009 26.09,25.9 C27.5142746,24.05579 27.7883078,21.5701935 26.8,19.46 Z" id="Path"></path>
                <path d="M8.08,3.56 L8.15,3.67 C8.69,4.45 9.24,5.26 9.83,6.03 C10.0966114,6.3570842 10.4886632,6.5567402 10.91,6.58 L12.38,6.58 L14.86,6.58 C15.62,6.58 16.4,6.58 17.17,6.58 C17.5823712,6.5611307 17.9674818,6.3685754 18.23,6.05 C18.92,5.05 19.59,4.1 20.23,3.14 L20.36,2.94 C20.5375354,2.6843882 20.6851668,2.4092569 20.8,2.12 C20.9621695,1.7642776 20.9621695,1.3557224 20.8,1 C20.607177,0.6500108 20.2711602,0.4016506 19.88,0.32 C18.6513595,-0.1100741 17.3060971,-0.0636858 16.11,0.45 C14.987672,1.0010237 13.6773196,1.019376 12.54,0.5 C11.2672022,-0.0082187 9.864434,-0.0923848 8.54,0.26 C8.0320145,0.2853419 7.5703692,0.5630797 7.31,1 C7.1053579,1.4753142 7.1464497,2.020714 7.42,2.46 C7.611293,2.8431442 7.8319519,3.2109089 8.08,3.56 Z M8.21,1.44 C8.21,1.37 8.39,1.28 8.69,1.22 C9.2417402,1.0934669 9.804283,1.0198006 10.37,1 C10.9727047,0.9898969 11.5702231,1.112815 12.12,1.36 C13.5283367,2.0012028 15.1495872,1.9791949 16.54,1.3 C17.5196944,0.8961724 18.615275,0.8747604 19.61,1.24 C19.79,1.24 19.88,1.35 19.9,1.39 C19.9381549,1.4966914 19.9381549,1.6133086 19.9,1.72 C19.8139028,1.9416786 19.7032107,2.1529999 19.57,2.35 L19.44,2.55 C18.8,3.55 18.14,4.49 17.44,5.43 C17.3626211,5.4921583 17.2687864,5.5303873 17.17,5.54 C16.41,5.54 15.64,5.54 14.9,5.54 L13.21,5.54 C12.46,5.54 11.7,5.54 10.95,5.54 C10.8299386,5.5258513 10.7176795,5.4732299 10.63,5.39 C10.06,4.67 9.51,3.87 9,3.1 L8.92,3 C8.6970589,2.6828833 8.4997667,2.3484896 8.33,2 C8.18,1.69 8.17,1.51 8.21,1.44 Z" id="Shape"></path>
                <path d="M14,26.06 C14.2761424,26.06 14.5,25.8361424 14.5,25.56 L14.5,24 C15.2580896,23.9687126 15.9909153,23.7186489 16.61,23.28 C17.4007224,22.7296198 17.8206121,21.7858311 17.7,20.83 C17.5008622,19.7503602 16.8445213,18.8096049 15.9,18.25 C15.459226,17.9599396 14.9901568,17.7153536 14.5,17.52 L14.5,13.27 C14.8545737,13.3674534 15.1919081,13.5192538 15.5,13.72 C16.0782815,14.0865227 16.4908401,14.6641047 16.65,15.33 C16.7053779,15.6014521 16.9673333,15.7790489 17.24,15.73 C17.5128759,15.6699442 17.6895161,15.4049838 17.64,15.13 C17.4131089,14.1923001 16.8232396,13.3830281 16,12.88 C15.5346814,12.5704022 15.01587,12.3499922 14.47,12.23 L14.47,10.38 C14.5106969,10.1775256 14.4252658,9.9704945 14.2536242,9.8556412 C14.0819825,9.7407879 13.8580175,9.7407879 13.6863758,9.8556412 C13.5147342,9.9704945 13.4293031,10.1775256 13.47,10.38 L13.47,12.13 C13.2519347,12.1296491 13.0343164,12.149737 12.82,12.19 C11.7398668,12.4216017 10.8425831,13.1693382 10.42,14.19 C10.2228383,14.6256249 10.1736688,15.1138075 10.28,15.58 C10.396582,15.9995598 10.6246623,16.3796937 10.94,16.68 C11.5811019,17.2529835 12.3239291,17.700715 13.13,18 L13.47,18.14 L13.47,22.83 C12.5755527,22.5216133 11.8342434,21.8805778 11.4,21.04 C11.2772434,20.8109193 11.1703264,20.5736971 11.08,20.33 C10.9647681,20.0924619 10.6873005,19.9821353 10.4404194,20.0756902 C10.1935384,20.1692451 10.0588699,20.4357496 10.13,20.69 C10.2395439,20.9790508 10.3698851,21.2597857 10.52,21.53 C11.0831561,22.6170844 12.0539515,23.4368671 13.22,23.81 L13.47,23.87 L13.47,25.54 C13.4640761,25.6814115 13.5183622,25.8187086 13.6193915,25.9178317 C13.7204208,26.0169548 13.858727,26.0686162 14,26.06 Z M15.33,19.06 C16.0209297,19.4769045 16.5147686,20.1545813 16.7,20.94 C16.7590038,21.5304684 16.490449,22.105943 16,22.44 C15.5534206,22.7549955 15.0259419,22.9354487 14.48,22.96 L14.48,18.6 C14.7680572,18.7279657 15.0455829,18.8784314 15.31,19.05 L15.33,19.06 Z M11.65,16 C11.4709805,15.8246169 11.3371572,15.6084407 11.26,15.37 C11.2091173,15.113514 11.2406181,14.8475073 11.35,14.61 C11.7055176,13.7495667 12.5391081,13.1833543 13.47,13.17 L13.47,17.09 C12.8026507,16.8392171 12.1860863,16.469956 11.65,16 Z" id="Shape"></path>
            </g>
        </g>
    </g>
</svg>