<?xml version="1.0" encoding="UTF-8"?>
<svg width="26px" height="30px" viewBox="0 0 26 30" version="1.1" xmlns="http://www.w3.org/2000/svg" xmlns:xlink="http://www.w3.org/1999/xlink">
    <title>MASTER Finastra Icons_9 Money-131_pink</title>
    <g id="Page-1" stroke="none" stroke-width="1" fill="none" fill-rule="evenodd">
        <g id="Landing" transform="translate(-522.000000, -683.000000)" fill="#414141" fill-rule="nonzero">
            <g id="MASTER-Finastra-Icons_9-Money-131_pink" transform="translate(522.000000, 683.000000)">
                <path d="M25.31,2.15 L24.31,1.15 C24.2161167,1.0553437 24.0883188,1.0021008 23.955,1.0021008 C23.8216812,1.0021008 23.6938833,1.0553437 23.6,1.15 L22.6,2.15 C22.4067004,2.3432997 22.4067004,2.6567003 22.6,2.85 C22.7932997,3.0432996 23.1067003,3.0432996 23.3,2.85 L23.45,2.71 L23.45,15 C23.45,15.2761424 23.6738576,15.5 23.95,15.5 C24.2261424,15.5 24.45,15.2761424 24.45,15 L24.45,2.7 L24.6,2.85 C24.7033715,2.95855 24.850742,3.013814 25,3 C25.1351336,2.999669 25.2646117,2.9457197 25.36,2.85 C25.5373851,2.642196 25.5151199,2.3304822 25.31,2.15 Z" id="Path"></path>
                <path d="M8.81,9.14 C8.3048172,9.6330492 8.0199658,10.3090912 8.0199658,11.015 C8.0199658,11.7209088 8.3048172,12.3969508 8.81,12.89 C9.8598775,13.9190858 11.5401225,13.9190858 12.59,12.89 C13.0951828,12.3969508 13.3800342,11.7209088 13.3800342,11.015 C13.3800342,10.3090912 13.0951828,9.6330492 12.59,9.14 C11.5401225,8.1109142 9.8598775,8.1109142 8.81,9.14 Z M11.89,12.14 C11.228966,12.7879429 10.171034,12.7879429 9.51,12.14 C9.1972294,11.8350917 9.0208404,11.4168004 9.0208404,10.98 C9.0208404,10.5431996 9.1972294,10.1249083 9.51,9.82 C10.1688235,9.1666667 11.2311765,9.1666667 11.89,9.82 C12.2027706,10.1249083 12.3791596,10.5431996 12.3791596,10.98 C12.3791596,11.4168004 12.2027706,11.8350917 11.89,12.14 Z" id="Shape"></path>
                <path d="M14.8,1.14 C14.6055782,0.9494286 14.2944218,0.9494286 14.1,1.14 L0.7,14.35 C0.5016638,14.5490237 0.5016638,14.8709763 0.7,15.07 L6.6,20.88 C6.7094458,20.9764324 6.8555457,21.0202624 7,21 C7.1296962,20.9968917 7.2539384,20.9471948 7.35,20.86 L20.7,7.67 C20.7976584,7.5759244 20.8519661,7.4455858 20.8500516,7.31 C20.8410221,7.1914103 20.7874204,7.0806336 20.7,7 L14.8,1.14 Z M7,19.82 L1.76,14.71 L14.45,2.2 L19.64,7.31 L7,19.82 Z" id="Shape"></path>
                <path d="M9.52,14.52 C8.9204424,14.4293713 8.3643745,14.153086 7.93,13.73 C7.501469,13.3103286 7.2207361,12.7628995 7.13,12.17 C7.0990712,11.9874184 6.973377,11.8350618 6.8,11.77 C6.6209741,11.7106002 6.4237564,11.7570044 6.29,11.89 L4.69,13.47 C4.5107994,13.6650947 4.5107994,13.9649053 4.69,14.16 C4.9541554,14.4409998 4.9541554,14.8790002 4.69,15.16 C4.5121414,15.3517766 4.5121414,15.6482234 4.69,15.84 L5.83,17 C6.0184462,17.1765385 6.3115538,17.1765385 6.5,17 C6.7909156,16.7621829 7.2090844,16.7621829 7.5,17 C7.591875,17.0785803 7.7091099,17.1212112 7.83,17.12 C7.9639578,17.1273508 8.0958554,17.0845732 8.2,17 L9.8,15.42 C9.9346828,15.2865665 9.9823126,15.0884368 9.9229952,14.9083663 C9.8636779,14.7282958 9.7076183,14.5972637 9.52,14.57 L9.52,14.52 Z M7.78,16 C7.5409403,15.8662953 7.2736919,15.7909176 7,15.78 C6.7343027,15.7824906 6.4720478,15.8403911 6.23,15.95 L5.67,15.4 C5.8997794,14.9228911 5.8997794,14.3671089 5.67,13.89 L6.38,13.2 C6.5732823,13.6658754 6.8590421,14.0877113 7.22,14.44 C7.5750738,14.797329 8.0008176,15.0766169 8.47,15.26 L7.78,16 Z" id="Shape"></path>
                <path d="M13.88,5.05 C13.6882234,4.8721414 13.3917766,4.8721414 13.2,5.05 L11.6,6.65 C11.4690621,6.7848908 11.4229479,6.9808763 11.48,7.16 C11.5340535,7.3426657 11.6910122,7.4760806 11.88,7.5 C12.4795576,7.5906287 13.0356255,7.866914 13.47,8.29 C13.898531,8.7096714 14.1792639,9.2571005 14.27,9.85 C14.2989492,10.0334799 14.4253649,10.1867111 14.6,10.25 C14.6529051,10.2595576 14.7070949,10.2595576 14.76,10.25 C14.8926039,10.2516165 15.0197197,10.1971383 15.11,10.1 L16.71,8.53 C16.8892006,8.3349053 16.8892006,8.0350947 16.71,7.84 C16.455356,7.5552993 16.455356,7.1247007 16.71,6.84 C16.8941271,6.6468509 16.8941271,6.3431491 16.71,6.15 L15.57,5.08 C15.3836014,4.8983545 15.0863986,4.8983545 14.9,5.08 C14.5982796,5.3203834 14.1670708,5.3077008 13.88,5.05 Z M15.15,6.05 L15.72,6.6 C15.4902206,7.0771089 15.4902206,7.6328911 15.72,8.11 L15.01,8.81 C14.8169208,8.3410784 14.5312212,7.9159302 14.17,7.56 C13.8105889,7.2080217 13.3860017,6.9294926 12.92,6.74 L13.62,6.05 C14.1009696,6.2867139 14.6630072,6.2940608 15.15,6.07 L15.15,6.05 Z" id="Shape"></path>
                <path d="M20,11 L7,23.81 L1.4,18.34 C1.2011775,18.1467004 0.8832997,18.1511775 0.69,18.35 C0.4967004,18.5488225 0.5011775,18.8667003 0.7,19.06 L6.6,24.87 C6.7077371,24.9700325 6.8540387,25.0175805 7,25 C7.1296962,24.9968917 7.2539384,24.9471948 7.35,24.86 L20.7,11.66 C20.7946563,11.5661167 20.8478992,11.4383188 20.8478992,11.305 C20.8478992,11.1716812 20.7946563,11.0438833 20.7,10.95 C20.492196,10.7726149 20.1804822,10.7948801 20,11 Z" id="Path"></path>
                <path d="M20,14.93 L7,27.8 L1.4,22.33 C1.3061167,22.2353437 1.1783188,22.1821008 1.045,22.1821008 C0.9116812,22.1821008 0.7838833,22.2353437 0.69,22.33 C0.5959359,22.4221636 0.5429286,22.5483103 0.5429286,22.68 C0.5429286,22.8116897 0.5959359,22.9378364 0.69,23.03 L6.59,28.85 C6.6964666,28.9601761 6.8475698,29.0154577 7,29 C7.1296962,28.9968917 7.2539384,28.9471948 7.35,28.86 L20.7,15.65 C20.8286156,15.524957 20.8807517,15.340797 20.8367692,15.1668911 C20.7927866,14.9929852 20.6593673,14.855754 20.4867691,14.8068911 C20.314171,14.7580282 20.1286156,14.804957 20,14.93 Z" id="Path"></path>
            </g>
        </g>
    </g>
</svg>