<?xml version="1.0" encoding="UTF-8"?>
<svg width="35px" height="34px" viewBox="0 0 35 34" version="1.1" xmlns="http://www.w3.org/2000/svg" xmlns:xlink="http://www.w3.org/1999/xlink">
    <title>corporate treasury</title>
    <g id="Page-1" stroke="none" stroke-width="1" fill="none" fill-rule="evenodd">
        <g id="corporate-treasury" fill="#000000" fill-rule="nonzero">
            <path d="M28.23,30.37 L20.17,30.37 L20.17,29.9 C20.0192131,28.431094 20.0900034,26.9478686 20.38,25.5 C20.8234722,23.666591 22.0324518,22.1116684 23.7,21.23 L23.7,21.23 C24.4577866,20.6975162 25.3322542,20.3545878 26.25,20.23 C26.428154,20.0712558 26.5921097,19.897262 26.74,19.71 L26.97,19.46 L27.33,19.1 C27.8531565,18.3988486 28.6413042,17.9433136 29.51,17.84 C29.8374806,16.9512439 30.0655371,16.0289568 30.19,15.09 C30.2700969,14.1341134 30.5458008,13.2048892 31,12.36 C31.5594618,11.38001 32.683546,10.8683301 33.79,11.09 L34.16,11.19 L34.16,20.86 C34.2038242,21.5574015 34.14997,22.2575058 34,22.94 C33.4396619,24.378051 32.4563938,25.6123663 31.18,26.48 L30.65,26.93 C29.6087418,27.7178586 28.8086008,28.7812493 28.34,30 L28.23,30.37 Z M21.12,29.37 L27.5,29.37 C28.0642612,28.1180455 28.9217786,27.0204231 30,26.17 L30.55,25.71 C31.6510459,24.9674015 32.5181245,23.9269071 33.05,22.71 C33.180829,22.1161062 33.2312802,21.5073283 33.2,20.9 L33.2,12.06 C32.6548837,12.145685 32.1754413,12.4677532 31.89,12.94 C31.5157127,13.6465924 31.291041,14.4227311 31.23,15.22 C31.0685319,16.1683115 30.8174055,17.0991536 30.48,18 C31.3363107,18.5000678 31.7472367,19.5150548 31.48,20.47 L31.48,20.63 L28.3,24 L27.57,23.32 L30.51,20.16 C30.57,19.57 30.51,18.9 29.77,18.79 C29.03,18.68 28.66,19.09 28.02,19.79 L27.64,20.17 L27.47,20.36 C27.03,20.87 26.74,21.18 26.39,21.21 C25.6035812,21.3191037 24.855452,21.6176691 24.21,22.08 C22.7636208,22.8282931 21.7129396,24.167182 21.33,25.75 C21.089244,26.9406747 21.0185402,28.1594731 21.12,29.37 L21.12,29.37 Z" id="Shape"></path>
            <path d="M30.06,33.68 L19,33.68 L19,29.37 L30.06,29.37 L30.06,33.68 Z M20,32.68 L29.06,32.68 L29.06,30.37 L20,30.37 L20,32.68 Z" id="Shape"></path>
            <path d="M7.3,30.37 L6.93,30.37 L6.82,30 C6.36128432,28.7812428 5.57169453,27.714604 4.54,26.92 L4,26.48 C2.72988554,25.6081102 1.75092742,24.374832 1.19,22.94 C1.03488757,22.2581316 0.970995971,21.5586867 1,20.86 L1,11.21 L1.36,11.09 C2.46645397,10.8683301 3.59053818,11.38001 4.15,12.36 C4.60909444,13.1733998 4.89826842,14.0715402 5,15 C5.1231158,15.9564718 5.35460306,16.8958404 5.69,17.8 C6.55794035,17.9055788 7.34525783,18.3606339 7.87,19.06 L8.22,19.42 C8.30083294,19.4994019 8.37759769,19.5828419 8.45,19.67 C8.60125704,19.8575179 8.7685556,20.0315084 8.95,20.19 C9.89282704,20.3274066 10.7883517,20.6911062 11.56,21.25 C13.2019551,22.1336081 14.3828676,23.6826446 14.8,25.5 C15.0828098,26.9488354 15.1502028,28.4314822 15,29.9 L15,30.37 L7.3,30.37 Z M2,12 L2,20.84 C1.97199946,21.4477769 2.02581454,22.05656 2.16,22.65 C2.68309909,23.8723058 3.55206132,24.9150605 4.66,25.65 L5.2,26.11 C6.26645667,26.9622868 7.11053544,28.0602755 7.66,29.31 L14.05,29.31 C14.1491235,28.0956891 14.0750485,26.873452 13.83,25.68 C13.4410391,24.1398352 12.4107662,22.8401623 11,22.11 C10.3390203,21.6279876 9.5698675,21.3155193 8.76,21.2 C8.41,21.2 8.12,20.86 7.68,20.35 L7.51,20.16 L7.13,19.78 C6.49,19.13 6.07,18.73 5.38,18.78 C4.69,18.83 4.59,19.56 4.64,20.15 L7.6,23.36 L6.87,24 L3.7,20.65 L3.7,20.49 C3.43276335,19.5350548 3.84368926,18.5200678 4.7,18.02 C4.37533598,17.1153278 4.14086341,16.1807871 4,15.23 C3.92984142,14.4159706 3.69870314,13.6239821 3.32,12.9 C3.03889039,12.4156823 2.55353606,12.0847589 2,12 Z" id="Shape"></path>
            <path d="M16.16,33.68 L5.1,33.68 L5.1,29.37 L16.16,29.37 L16.16,33.68 Z M6.1,32.68 L15.16,32.68 L15.16,30.37 L6.1,30.37 L6.1,32.68 Z" id="Shape"></path>
            <path d="M17.55,18.35 C13.55,18.35 10.32,16 10.32,13.12 C10.3205158,9.56303377 11.8460554,6.1769913 14.51,3.82 L14.66,3.69 L20.61,3.69 L20.76,3.86 C20.95,4.07 25.5,9.22 24.76,13.21 C24.77,16 21.53,18.35 17.55,18.35 Z M15.05,4.69 C12.7011614,6.85558331 11.3513618,9.89534664 11.32,13.09 C11.32,15.45 14.12,17.35 17.55,17.35 C20.98,17.35 23.77,15.45 23.77,13.12 C24.36,9.9 20.91,5.59 20.15,4.69 L15.05,4.69 Z" id="Shape"></path>
            <path d="M20.55,4.68 L14.64,4.68 L14.5,4.51 C13.5,3.41 12.01,1.42 12.62,0.51 C13.06,-0.2 14.17,0.12 14.54,0.22 C16.3433412,0.803859061 18.276117,0.859378654 20.11,0.38 L20.61,0.27 C20.77,0.27 20.92,0.21 21.06,0.18 C21.64,0.05 22.19,-0.08 22.52,0.32 C22.7493395,0.69073214 22.7493395,1.15926786 22.52,1.53 C22.0055388,2.58310883 21.3963629,3.58724486 20.7,4.53 L20.55,4.68 Z M15.1,3.68 L20,3.68 C20.607768,2.86492721 21.1431382,1.99829667 21.6,1.09 C21.6,1.09 21.6,1.09 21.6,1.03 L21.26,1.1 L20.77,1.21 L20.32,1.31 C18.3205296,1.82676881 16.2153354,1.7643413 14.25,1.13 C13.59,0.95 13.41,1.03 13.41,1.03 C13.7886805,2.01835417 14.3635643,2.91979912 15.1,3.68 L15.1,3.68 Z" id="Shape"></path>
            <path d="M17.7,12.26 C17.7,11.96 17.7,11.66 17.7,11.36 C17.7085484,11.3079751 17.6950953,11.2547372 17.6628582,11.2130186 C17.6306211,11.1713001 17.5824988,11.1448521 17.53,11.14 C17.2453083,11.0517605 16.9730929,10.9274152 16.72,10.77 C16.2284219,10.4976286 15.945529,9.95934614 16,9.4 C16.011366,8.82513718 16.3659293,8.31299033 16.9,8.1 C17.0961474,8.01027108 17.3055184,7.95286292 17.52,7.93 C17.65,7.93 17.69,7.87 17.67,7.74 C17.65,7.61 17.67,7.46 17.88,7.46 C18.09,7.46 18.12,7.57 18.09,7.74 C18.06,7.91 18.17,7.9 18.28,7.91 C18.6271752,7.91349789 18.9690536,7.99554871 19.28,8.15 C19.4786167,8.21651135 19.5859609,8.43119986 19.52,8.63 C19.5058879,8.74814492 19.4310421,8.85031696 19.3226524,8.89939907 C19.2142627,8.94848118 19.0881013,8.93733132 18.99,8.87 C18.7602812,8.75122969 18.5143011,8.66698992 18.26,8.62 C18.15,8.62 18.09,8.62 18.09,8.75 C18.09,9.28 18.09,9.82 18.09,10.36 C18.09,10.47 18.15,10.5 18.23,10.53 C18.4741717,10.6153642 18.7087742,10.7259625 18.93,10.86 C19.5285556,11.2325384 19.8286815,11.9408357 19.68,12.63 C19.6046255,13.3059596 19.105124,13.8578282 18.44,14 C18.22,14.05 18.07,14.09 18.12,14.36 C18.17,14.63 18.02,14.55 17.89,14.55 C17.8353357,14.5548205 17.7817062,14.532957 17.745993,14.4912917 C17.7102799,14.4496264 17.6968757,14.393284 17.71,14.34 C17.71,14.11 17.63,14.07 17.43,14.06 C17.0217062,14.0437131 16.6264072,13.9119467 16.29,13.68 C16.1188457,13.5757281 15.9829714,13.422434 15.9,13.24 C15.8348565,13.0391622 15.902891,12.8190507 16.07,12.69 C16.25,12.56 16.38,12.69 16.5,12.78 C16.7745256,13.0484791 17.1225502,13.2294519 17.5,13.3 C17.66,13.3 17.72,13.3 17.71,13.13 C17.7,12.96 17.7,12.56 17.7,12.26 Z M18.09,11.37 L18.09,13.37 C18.63,13.27 18.89,13.01 18.94,12.55 C18.99,12.09 18.72,11.62 18.09,11.37 Z M17.75,10.37 L17.75,8.75 C17.75,8.69 17.75,8.64 17.66,8.64 C17.3098287,8.65302614 16.9967054,8.86177501 16.85,9.18 C16.7370811,9.52024158 16.8739047,9.89339695 17.18,10.08 C17.3557893,10.1925686 17.5481178,10.2769231 17.75,10.33 L17.75,10.37 Z" id="Shape"></path>
        </g>
    </g>
</svg>