<?xml version="1.0" encoding="UTF-8"?>
<svg width="12px" height="14px" viewBox="0 0 12 14" version="1.1" xmlns="http://www.w3.org/2000/svg" xmlns:xlink="http://www.w3.org/1999/xlink">
    <!-- Generator: Sketch 62 (91390) - https://sketch.com -->
    <title>icon/action/delete_24px</title>
    <desc>Created with Sketch.</desc>
    <defs>
        <path d="M12,6.75 L12,14.25 L6,14.25 L6,6.75 L12,6.75 L12,6.75 Z M10.875,2.25 L7.125,2.25 L6.375,3 L3.75,3 L3.75,4.5 L14.25,4.5 L14.25,3 L11.625,3 L10.875,2.25 Z M13.5,5.25 L4.5,5.25 L4.5,14.25 C4.5,15.075 5.175,15.75 6,15.75 L12,15.75 C12.825,15.75 13.5,15.075 13.5,14.25 L13.5,5.25 Z" id="path-1"></path>
    </defs>
    <g id="Symbols" stroke="none" stroke-width="1" fill="none" fill-rule="evenodd">
        <g id="Finastra-/-Component-/-Table-/-Standard-/-Elements-/-Cell-/-Content-/-Actions-/-Common-Actions" transform="translate(-128.000000, -19.000000)">
            <g id="icon/action/delete_24px" transform="translate(125.000000, 17.000000)">
                <mask id="mask-2" fill="white">
                    <use xlink:href="#path-1"></use>
                </mask>
                <g fill-rule="nonzero"></g>
                <g id="✱-Color-/-Material-/-Icons-/-Preview" mask="url(#mask-2)" fill="#000000" fill-opacity="0.54" fill-rule="evenodd">
                    <rect id="Rectangle" x="0" y="0" width="18" height="18"></rect>
                </g>
            </g>
        </g>
    </g>
</svg>