<svg width="22" height="16" viewBox="0 0 22 16" fill="none" xmlns="http://www.w3.org/2000/svg">
<path d="M3 4H6V0H20C21.1 0 22 0.9 22 2V13H20C20 14.66 18.66 16 17 16C15.34 16 14 14.66 14 13H8C8 14.66 6.66 16 5 16C3.34 16 2 14.66 2 13H0V8L3 4ZM3.5 5.5L1.54 8H6V5.5H3.5ZM17 14C17.55 14 18 13.55 18 13C18 12.45 17.55 12 17 12C16.45 12 16 12.45 16 13C16 13.55 16.45 14 17 14ZM14.78 11C15.33 10.39 16.11 10 17 10C17.89 10 18.67 10.39 19.22 11H20V2H8V11H14.78ZM5 14C5.55 14 6 13.55 6 13C6 12.45 5.55 12 5 12C4.45 12 4 12.45 4 13C4 13.55 4.45 14 5 14Z" fill="black" fill-opacity="0.73"/>
</svg>
