<?xml version="1.0" encoding="UTF-8"?>
<svg width="28px" height="28px" viewBox="0 0 28 28" version="1.1" xmlns="http://www.w3.org/2000/svg" xmlns:xlink="http://www.w3.org/1999/xlink">
    <!-- Generator: Sketch 62 (91390) - https://sketch.com -->
    <title>MASTER Finastra Icons_9 Money-135_pink</title>
    <desc>Created with Sketch.</desc>
    <g id="Page-1" stroke="none" stroke-width="1" fill="none" fill-rule="evenodd">
        <g id="Artboard-Copy-3" transform="translate(-725.000000, -330.000000)" fill="#414141" fill-rule="nonzero">
            <g id="MASTER-Finastra-Icons_9-Money-135_pink" transform="translate(725.000000, 330.000000)">
                <path d="M21.88,19.62 C21.28,19.79 18.14,20.8 16.59,21.31 C16.59,21.2 16.59,21.09 16.59,20.98 C16.4888667,19.6370661 15.3459258,18.6132734 14,18.66 L9.18,18.66 C7.9020736,17.9194317 6.5833029,17.2516997 5.23,16.66 C3.7274921,16.1533105 2.1440765,15.9295302 0.56,16 C0.3775929,15.9731787 0.1963499,16.0554835 0.0965077,16.2104779 C-0.0033345,16.3654723 -0.0033345,16.5645277 0.0965077,16.7195221 C0.1963499,16.8745165 0.3775929,16.9568213 0.56,16.93 C2.0119662,16.8959015 3.4582552,17.1228368 4.83,17.6 C6.1834021,18.1846046 7.4992593,18.8525525 8.77,19.6 C8.841549,19.6460479 8.9249146,19.6703628 9.01,19.67 L14,19.67 C14.68,19.67 15.7,20.11 15.7,21.05 C15.6526091,21.758313 15.121243,22.3394947 14.42,22.45 C14.02,22.45 10.8,22.45 9.15,22.45 C8.9675929,22.4231787 8.7863499,22.5054835 8.6865077,22.6604779 C8.5866655,22.8154723 8.5866655,23.0145277 8.6865077,23.1695221 C8.7863499,23.3245165 8.9675929,23.4068213 9.15,23.38 C9.35,23.38 13.94,23.38 14.46,23.38 C15.0708341,23.278103 15.6207646,22.9495731 16,22.46 C16.49,22.31 21.36,20.73 22.11,20.51 C22.6710936,20.356083 23.255821,20.6615376 23.45,21.21 C23.66,21.9 22.91,22.45 22.23,22.78 C21.55,23.11 18.08,24.53 15.78,25.38 C12.8776428,26.3746198 9.8457274,26.9405774 6.78,27.06 C5,27 2,24.33 1,23.3 C0.8900019,23.1560446 0.7070569,23.0881287 0.5297686,23.125433 C0.3524803,23.1627372 0.2124175,23.298619 0.1697593,23.4746958 C0.127101,23.6507725 0.1894432,23.8356911 0.33,23.95 C0.48,24.11 4.23,27.95 6.85,28 L7,28 C10.1034364,27.8517487 13.1703859,27.2659647 16.11,26.26 C18.32,25.45 21.87,24.02 22.66,23.62 C24.57,22.67 24.54,21.53 24.35,20.93 C24.0193141,19.8947907 22.9225028,19.3130811 21.88,19.62 Z" id="Path"></path>
                <path d="M12.6,4.6 L13,4.6 C13.0577124,4.9458223 13.2179696,5.2663367 13.46,5.52 C13.7949515,5.8793842 14.2689969,6.0762954 14.76,6.06 C15.042575,6.0650249 15.322712,6.0069478 15.58,5.89 L15.58,5.06 C15.3600412,5.2777099 15.059179,5.393705 14.75,5.38 C14.4773404,5.3851077 14.2167625,5.2676641 14.04,5.06 C13.9384796,4.9242996 13.8699999,4.7667963 13.84,4.6 L15.07,4.6 L15.16,4.18 L13.79,4.18 C13.7852659,4.1134174 13.7852659,4.0465826 13.79,3.98 C13.7843703,3.9268152 13.7843703,3.8731848 13.79,3.82 L15.25,3.82 L15.33,3.4 L13.84,3.4 C13.8834109,3.2522706 13.9584851,3.1157722 14.06,3 C14.2380784,2.7883645 14.5035789,2.6703643 14.78,2.68 C15.026992,2.6633383 15.2697639,2.7503013 15.45,2.92 L15.61,2.16 C15.3624766,2.0466188 15.0921341,1.9918659 14.82,2 C14.311191,1.9769112 13.817813,2.177917 13.47,2.55 C13.23566,2.8011782 13.0763141,3.1129419 13.01,3.45 L12.69,3.45 L12.6,3.87 L13,3.87 C13,3.88 13,4 13,4 C13,4 13,4.1 13,4.14 L12.73,4.14 L12.6,4.6 Z" id="Path"></path>
                <path d="M14.39,8.4 C16.7082862,8.3944803 18.5836724,6.511639 18.5800001,4.1933492 C18.5763171,1.8750594 16.6949666,-0.0018223 14.3766746,1.1854875e-05 C12.0583826,0.0018488 10.18,1.8817072 10.18,4.2 C10.1855136,6.5212126 12.0687809,8.4 14.39,8.4 Z M14.39,1.01 C16.1517884,1.01 17.58,2.4382116 17.58,4.2 C17.58,5.9617884 16.1517884,7.39 14.39,7.39 C12.6282116,7.39 11.2,5.9617884 11.2,4.2 C11.2,2.4365867 12.6265953,1.0055107 14.39,1 L14.39,1.01 Z" id="Shape"></path>
                <path d="M23.69,1.8 C21.3704041,1.8 19.49,3.6804041 19.49,6 C19.49,8.3195959 21.3704041,10.2 23.69,10.2 C26.0095959,10.2 27.89,8.3195959 27.89,6 C27.8845022,3.6826851 26.0073149,1.8054978 23.69,1.8 Z M23.69,9.19 C21.9282116,9.19 20.5,7.7617884 20.5,6 C20.5,4.2382116 21.9282116,2.81 23.69,2.81 C25.4517884,2.81 26.88,4.2382116 26.88,6 C26.88,7.7617884 25.4517884,9.19 23.69,9.19 Z" id="Shape"></path>
                <path d="M8.73,15.92 C10.939139,15.92 12.73,14.129139 12.73,11.92 C12.73,9.710861 10.939139,7.92 8.73,7.92 C6.520861,7.92 4.73,9.710861 4.73,11.92 C4.73,14.129139 6.520861,15.92 8.73,15.92 Z M8.73,8.92 C10.3868542,8.92 11.73,10.2631458 11.73,11.92 C11.73,13.5768542 10.3868542,14.92 8.73,14.92 C7.0731458,14.92 5.73,13.5768542 5.73,11.92 C5.73,10.2631458 7.0731458,8.92 8.73,8.92 Z" id="Shape"></path>
                <path d="M24.44,7.32 C24.2913079,7.30602 24.1440968,7.2792543 24,7.24 L23.77,7.18 L23.6,7.18 C23.4720791,7.1770682 23.3452834,7.2044835 23.23,7.26 C23.3621801,7.1164382 23.4732906,6.9548229 23.56,6.78 C23.6179899,6.6548909 23.6454102,6.5177892 23.64,6.38 L23.64,6.26 L24.36,6.26 L24.36,5.66 L23.51,5.66 C23.4694202,5.5455265 23.436022,5.4286328 23.41,5.31 C23.4027791,5.2101304 23.4027791,5.1098696 23.41,5.01 C23.4068001,4.8741796 23.4613063,4.7433647 23.56,4.65 C23.6518178,4.5490874 23.7836933,4.4941393 23.92,4.5 C24.046584,4.4935162 24.1700327,4.5407172 24.26,4.63 C24.3658543,4.7465824 24.4323285,4.8935254 24.45,5.05 L25.18,4.94 C25.1553744,4.6394566 25.0156593,4.3600265 24.79,4.16 C24.5490591,3.969382 24.2467751,3.8733624 23.94,3.89 C23.7189571,3.8889403 23.500412,3.936747 23.3,4.03 C22.9139609,4.211617 22.6710137,4.6034672 22.68,5.03 C22.6774553,5.251505 22.7147134,5.4716665 22.79,5.68 L22.36,5.68 L22.36,6.28 L22.93,6.28 C22.93,6.28 22.93,6.38 22.93,6.43 C22.9230675,6.5958584 22.8749541,6.757382 22.79,6.9 C22.6854137,7.0913363 22.5340326,7.2530389 22.35,7.37 L22.64,8.03 C22.8367006,7.8821765 23.0740884,7.7983925 23.32,7.79 C23.524345,7.8039057 23.7260255,7.8442418 23.92,7.91 C24.1304531,7.9768969 24.349254,8.0139248 24.57,8.02 C24.6903482,8.0299581 24.8114954,8.0232277 24.93,8 C25.0568752,7.973424 25.1785044,7.9261238 25.29,7.86 L25,7.17 C24.8252369,7.256931 24.6348168,7.3079364 24.44,7.32 Z" id="Path"></path>
                <path d="M7.53,11.84 L7.53,12.41 L8.53,12.41 L8.53,12.72 L7.53,12.72 L7.53,13.29 L8.53,13.29 L8.53,14 L9.25,14 L9.25,13.3 L10.25,13.3 L10.25,12.73 L9.25,12.73 L9.25,12.42 L10.25,12.42 L10.25,11.85 L9.57,11.85 L10.38,10.23 L9.59,10.23 L9,11.31 C8.9462744,11.4305457 8.8995305,11.5540832 8.86,11.68 C8.8305775,11.5508133 8.7834664,11.4263053 8.72,11.31 L8.21,10.22 L7.4,10.22 L8.2,11.84 L7.53,11.84 Z" id="Path"></path>
                <path d="M14.61,14.45 C14.61,16.659139 16.400861,18.45 18.61,18.45 C20.819139,18.45 22.61,16.659139 22.61,14.45 C22.61,12.240861 20.819139,10.45 18.61,10.45 C16.400861,10.45 14.61,12.240861 14.61,14.45 Z M18.61,11.4499833 C20.2668542,11.4499833 21.61,12.7931458 21.61,14.45 C21.61,16.1068542 20.2668542,17.45 18.61,17.45 C16.9531458,17.45 15.61,16.1068542 15.61,14.45 C15.61,13.6526149 15.9274384,12.8880338 16.4922122,12.3251363 C17.056986,11.7622388 17.8226193,11.447342 18.62,11.4499833 L18.61,11.4499833 Z" id="Shape"></path>
                <path d="M18.3,15.43 C18.2221168,15.323617 18.1706974,15.2002105 18.15,15.07 L17.47,15.15 C17.5065882,15.4409331 17.6323447,15.7134055 17.83,15.93 C18.0233548,16.121783 18.2784966,16.2387229 18.55,16.26 L18.55,16.73 L18.93,16.73 L18.93,16.25 C19.2278825,16.2161398 19.5041823,16.0779898 19.71,15.86 C19.9002634,15.6417756 20.0003691,15.3593347 19.99,15.07 C20.0029356,14.8239717 19.9245947,14.5818273 19.77,14.39 C19.5381749,14.1674658 19.2460809,14.0179415 18.93,13.96 L18.93,13 C19.0959218,13.0755704 19.2125071,13.2297638 19.24,13.41 L19.89,13.33 C19.838458,12.8170987 19.4054781,12.4274168 18.89,12.43 L18.89,12.18 L18.51,12.18 L18.51,12.43 C18.2408708,12.4492012 17.9881852,12.5666466 17.8,12.76 C17.6237524,12.9535185 17.5304057,13.2084267 17.54,13.47 C17.5332403,13.7260017 17.6144163,13.9765884 17.77,14.18 C17.9691079,14.3949177 18.2260839,14.5477142 18.51,14.62 L18.51,15.69 C18.4194603,15.622153 18.3472803,15.5327873 18.3,15.43 Z M18.93,14.68 C19.056278,14.7095363 19.171056,14.7756206 19.26,14.87 C19.3293582,14.9541525 19.364995,15.061063 19.36,15.17 C19.358958,15.4216536 19.1778582,15.6364464 18.93,15.68 L18.93,14.68 Z M18.3,13.68 C18.1866197,13.5252077 18.1866197,13.3147923 18.3,13.16 C18.3587137,13.0758989 18.4428232,13.0128168 18.54,12.98 L18.54,13.87 C18.4405557,13.8166085 18.3575729,13.7370834 18.3,13.64 L18.3,13.68 Z" id="Shape"></path>
            </g>
        </g>
    </g>
</svg>