<?xml version="1.0" encoding="UTF-8"?>
<svg width="18px" height="20px" viewBox="0 0 18 20" version="1.1" xmlns="http://www.w3.org/2000/svg" xmlns:xlink="http://www.w3.org/1999/xlink">
    <title>noun_User_75785</title>
    <g id="Page-1" stroke="none" stroke-width="1" fill="none" fill-rule="evenodd">
        <g id="ImportLCInquiry-Approval-Screen-Events-v-2.0-Copy-7" transform="translate(-173.000000, -542.000000)" fill="#C137A2" fill-rule="nonzero">
            <g id="Group" transform="translate(173.000000, 542.000000)">
                <path d="M11.3498571,7.94911111 C11.3959286,7.98177778 11.4582857,8.01288889 11.4872143,8.07444444 C11.5431429,8.19488889 11.3777143,8.57355556 11.3344286,8.67133333 C11.2508571,8.86022222 11.1488571,8.92488889 11.0650714,9.02155556 C10.9579286,9.54533333 10.7854286,10.0008889 10.5162857,10.3564444 C10.5477857,10.5288889 10.5027857,10.7204444 10.5477857,10.8491111 C10.599,10.9944444 10.8608571,11.1068889 11.0228571,11.1553333 C12.1358571,11.4886667 13.7577857,11.3702222 13.7134286,13.0135556 C13.7076429,13.2344444 13.7271429,13.1657778 13.629,13.3377778 C13.5816429,13.4204444 13.3427143,13.5315556 13.2173571,13.6004444 C12.2063571,14.1557778 10.9442143,14.4431112 9.42921429,14.4431112 C7.92664286,14.4433333 6.67992857,14.1637778 5.65157143,13.6006667 C5.5215,13.5295556 5.3025,13.4408889 5.24014286,13.3491111 C5.139,13.1993333 5.15528571,13.2557778 5.14521429,13.0246667 C5.08564286,11.6617778 6.1815,11.5891111 7.2135,11.3195556 C7.58014286,11.2237778 8.20457143,11.1093333 8.31085714,10.8382222 C8.34021429,10.7631111 8.35778571,10.5935556 8.33185714,10.4662222 C8.31664286,10.3906667 8.20457143,10.2573333 8.142,10.1486667 C8.01771429,9.93377778 7.91421429,9.71711111 7.836,9.44844444 C7.79378571,9.30311111 7.79057143,9.14711111 7.74107143,9.04355556 C7.70742857,8.97288889 7.67057143,8.91888889 7.60864286,8.84666667 C7.55378571,8.78222222 7.48585714,8.71044444 7.4505,8.62777778 C7.39864286,8.50711111 7.2435,8.20244444 7.29792857,8.08577778 C7.32364286,8.03044444 7.37657143,7.95733333 7.47728571,7.96044444 C7.25528571,6.552 8.0415,5.64755556 9.20764286,5.564 C10.5859286,5.46533333 11.6535,6.46488889 11.3498571,7.94911111 Z" id="Path"></path>
                <path d="M9.71442857,17.8457778 C5.54271429,17.8457778 2.14885714,14.3264444 2.14885714,10 C2.14885714,5.674 5.54271429,2.15444444 9.71442857,2.15444444 C11.6813571,2.15444444 13.4723571,2.93977778 14.8191429,4.22022222 L12.9426429,6.16644444 L17.9284286,6.16666667 L17.9282143,0.996222222 L16.2872143,2.698 C14.5637143,1.02733333 12.2541429,0 9.71442857,0 C4.39735714,0 0.0715714286,4.486 0.0715714286,10 C0.0715714286,15.5142222 4.39735714,20 9.71442857,20 C12.9951429,20 15.8965714,18.2908889 17.6391429,15.6875556 L14.9172857,15.6875556 C13.5602143,17.0233333 11.7287143,17.8457778 9.71442857,17.8457778 Z" id="Path"></path>
            </g>
        </g>
    </g>
</svg>