<svg width="16px" height="18px" xmlns="http://www.w3.org/2000/svg" viewBox="0 0 18.64 16.58"><defs><style>.cls-1{fill:#707070;}</style></defs><g id="Layer_2" data-name="Layer 2"><g id="Layer_1-2" data-name="Layer 1"><path class="cls-1" d="M3.21.25H15.58a2.81,2.81,0,0,1,2.81,2.81v7.6a2.81,2.81,0,0,1-2.81,2.81H11.26a.71.71,0,1,1,0-1.41h4.32A1.41,1.41,0,0,0,17,10.66V5.39H1.8V7.11a.71.71,0,0,1-1.41,0V3.06A2.81,2.81,0,0,1,3.21.25ZM1.8,4H17V3.06a1.41,1.41,0,0,0-1.41-1.4H3.21A1.41,1.41,0,0,0,1.8,3.06Z"/><path class="cls-1" d="M15.58,13.72H11.26a1,1,0,1,1,0-1.91h4.32a1.16,1.16,0,0,0,1.16-1.15v-5H2.05V7.11a1,1,0,0,1-1.91,0V3.06A3.07,3.07,0,0,1,3.21,0H15.58a3.06,3.06,0,0,1,3.06,3.06v7.6A3.07,3.07,0,0,1,15.58,13.72Zm-4.32-1.41a.47.47,0,0,0-.46.46.46.46,0,0,0,.46.45h4.32a2.56,2.56,0,0,0,2.56-2.56V3.06A2.56,2.56,0,0,0,15.58.5H3.21A2.57,2.57,0,0,0,.64,3.06V7.11a.46.46,0,0,0,.46.45.45.45,0,0,0,.45-.45v-2H17.24v5.52a1.66,1.66,0,0,1-1.66,1.65Zm6-8.08H1.55V3.06A1.65,1.65,0,0,1,3.21,1.41H15.58a1.66,1.66,0,0,1,1.66,1.65ZM2.05,3.73H16.74V3.06a1.15,1.15,0,0,0-1.16-1.15H3.21A1.15,1.15,0,0,0,2.05,3.06Z"/><path class="cls-1" d="M8.76,15.68a.2.2,0,1,1,0,.4H4.52c-5.36,0-5.36-6.47,0-6.47H8.25L6.33,7.9c-.1-.11.11-.41.31-.21L8.86,9.61a.32.32,0,0,1,0,.41L6.64,11.94c-.2.2-.41-.1-.31-.31L8.25,10H4.52c-4.95,0-4.85,5.66,0,5.66Z"/><path class="cls-1" d="M8.76,15.18H4.52a3.67,3.67,0,0,1-2.43-.77,2.13,2.13,0,0,1-.75-1.59c0-1.11,1-2.3,3.18-2.3H6.88L6,11.25l-.12.16a.77.77,0,0,0,.23,1A.65.65,0,0,0,7,12.32l2.25-2a.65.65,0,0,0,.17-.26h0v0l0-.09h0a1,1,0,0,0,0-.25.41.41,0,0,1,0-.11.54.54,0,0,1,0-.1h0a1,1,0,0,0-.18-.29L7,7.34a.75.75,0,0,0-.52-.21.61.61,0,0,0-.45.2.66.66,0,0,0,0,.94l1,.84H4.52a4.9,4.9,0,0,0-3.35,1.14A3.51,3.51,0,0,0,0,12.85c0,1.85,1.55,3.73,4.52,3.73H8.76a.7.7,0,1,0,0-1.4Z"/><path class="cls-1" d="M6.31,11.56l0,0Z"/><path class="cls-1" d="M6.31,8.07h0Z"/></g></g></svg>