<?xml version="1.0" encoding="UTF-8"?>
<svg width="24px" height="24px" viewBox="0 0 24 24" version="1.1" xmlns="http://www.w3.org/2000/svg" xmlns:xlink="http://www.w3.org/1999/xlink">
    <!-- Generator: Sketch 63.1 (92452) - https://sketch.com -->
    <title>Artboard</title>
    <desc>Created with Sketch.</desc>
    <g id="Artboard" stroke="none" stroke-width="1" fill="none" fill-rule="evenodd">
        <g id="Repayment-Icon-(1)" transform="translate(1.000000, 2.000000)" fill="#707070" fill-rule="nonzero">
            <path d="M3.85199977,0.299978599 L18.6959989,0.299978599 C20.558303,0.299978599 22.0679987,1.80969572 22.0679987,3.67199978 L22.0679987,12.7919992 C22.0679987,14.6543033 20.558303,16.163999 18.6959989,16.163999 L13.5119992,16.163999 C13.1856944,16.2029302 12.8660885,16.0507314 12.6906457,15.7728639 C12.5152029,15.4949965 12.5152029,15.1410017 12.6906457,14.8631342 C12.8660885,14.5852668 13.1856944,14.433068 13.5119992,14.4719991 L18.6959989,14.4719991 C19.1447485,14.475193 19.5763861,14.2999786 19.8959506,13.9849217 C20.215515,13.6698581 20.3968274,13.2407491 20.3999988,12.7919992 L20.3999988,6.46799961 L2.15999987,6.46799961 L2.15999987,8.53199949 C2.10887994,8.96046532 1.74550452,9.28306382 1.31399992,9.28306382 C0.882495325,9.28306382 0.519119908,8.96046532 0.467999972,8.53199949 L0.467999972,3.67199978 C0.467999972,2.77560681 0.824904323,1.91610188 1.45987471,1.28338317 C2.09484509,0.650664453 2.95561248,0.296809972 3.85199977,0.299978599 Z M2.15999987,4.79999971 L20.3999988,4.79999971 L20.3999988,3.67199978 C20.3934045,2.74222373 19.6377983,1.99199988 18.7079989,1.99199988 L3.85199977,1.99199988 C2.92220033,1.99199988 2.16659419,2.74222373 2.15999987,3.67199978 L2.15999987,4.79999971 Z" id="Shape"></path>
            <path d="M18.6959989,16.463999 L13.5119992,16.463999 C13.0191859,16.6170579 12.4837018,16.4379142 12.1821993,16.0191205 C11.8806967,15.6003268 11.8806967,15.0356714 12.1821993,14.6168777 C12.4837018,14.198084 13.0191859,14.0189402 13.5119992,14.1719992 L18.6959989,14.1719992 C19.4601172,14.1720275 20.0814116,13.5560892 20.0879988,12.7919992 L20.0879988,6.7919996 L2.45999985,6.7919996 L2.45999985,8.53199949 C2.30409298,9.03398247 1.83963655,9.37607248 1.31399992,9.37607248 C0.788363294,9.37607248 0.323906862,9.03398247 0.16799999,8.53199949 L0.16799999,3.67199978 C0.174612172,1.64207075 1.82205997,0 3.85199977,0 L18.6959989,0 C20.7239884,0 22.3679987,1.6440103 22.3679987,3.67199978 L22.3679987,12.7919992 C22.3614124,14.8172543 20.721254,16.4574128 18.6959989,16.463999 Z M13.5119992,14.7719991 C13.2098133,14.778363 12.9663631,15.0218132 12.9599992,15.3239991 C12.9665261,15.6241638 13.2117635,15.8639991 13.5119992,15.8639991 L18.6959989,15.8639991 C19.5107439,15.8639991 20.2921191,15.5403429 20.8682308,14.9642311 C21.4443425,14.3881194 21.768,13.6067442 21.768,12.7919992 L21.768,3.67199978 C21.768,1.97538113 20.3926175,0.599999964 18.6959989,0.599999964 L3.85199977,0.599999964 C2.15342901,0.599999964 0.774609179,1.97344188 0.767999954,3.67199978 L0.767999954,8.53199949 C0.774526809,8.83216425 1.01976422,9.07207041 1.31999992,9.07199946 C1.61823367,9.07199946 1.85999989,8.83023324 1.85999989,8.53199949 L1.85999989,6.13199963 L20.6879988,6.13199963 L20.6879988,12.7559992 C20.6813995,13.8514612 19.7914807,14.736019 18.6959989,14.7359991 L13.5119992,14.7719991 Z M20.7119988,5.0759997 L1.85999989,5.0759997 L1.85999989,3.67199978 C1.85999989,3.1447854 2.07024319,2.63933755 2.44416462,2.26766866 C2.81808605,1.89599977 3.32479507,1.68880466 3.85199977,1.6919999 L18.6959989,1.6919999 C19.7914807,1.69196348 20.6813995,2.57653781 20.6879988,3.67199978 L20.7119988,5.0759997 Z M2.45999985,4.47599973 L20.0879988,4.47599973 L20.0879988,3.67199978 C20.0879988,3.30391239 19.9409742,2.95107313 19.6795728,2.69192522 C19.4181714,2.4327773 19.0640724,2.2887991 18.6959989,2.29199986 L3.85199977,2.29199986 C3.4839263,2.2887991 3.12982723,2.4327773 2.86842585,2.69192522 C2.60702447,2.95107313 2.45999985,3.30391239 2.45999985,3.67199978 L2.45999985,4.47599973 Z" id="Shape"></path>
            <path d="M10.5119994,18.8159989 C10.5977431,18.8159989 10.6769736,18.8617426 10.7198455,18.9359989 C10.7627174,19.0102551 10.7627174,19.1017426 10.7198455,19.1759989 C10.6769736,19.2502551 10.5977431,19.2959988 10.5119994,19.2959988 L5.42399968,19.2959988 C-1.00799994,19.2959988 -1.00799994,11.5319993 5.42399968,11.5319993 L9.89999941,11.5319993 L7.59599955,9.47999943 C7.47599955,9.34799944 7.72799954,8.98799946 7.96799953,9.22799945 L10.6319994,11.5319993 C10.7508582,11.6744636 10.7508582,11.881535 10.6319994,12.0239993 L7.96799953,14.3279991 C7.72799954,14.5679991 7.47599955,14.2079992 7.59599955,13.9559992 L9.89999941,11.9999993 L5.42399968,11.9999993 C-0.515999969,11.9999993 -0.395999976,18.7919989 5.42399968,18.7919989 L10.5119994,18.8159989 Z" id="Path"></path>
            <path d="M10.5119994,18.2159989 L5.42399968,18.2159989 C4.37282058,18.2662962 3.33837951,17.9385103 2.50799985,17.291999 C1.94728708,16.8152397 1.61930312,16.1199138 1.6079999,15.3839991 C1.6079999,14.0519992 2.80799983,12.6239992 5.42399968,12.6239992 L8.25599951,12.6239992 L7.19999957,13.4999992 L7.05599958,13.6919992 C6.82924627,14.1039555 6.94805241,14.6205039 7.33199956,14.8919991 C7.66010251,15.1456418 8.12931824,15.098193 8.3999995,14.7839991 L11.0999993,12.3839993 C11.1922167,12.2980158 11.2622156,12.1909586 11.3039993,12.0719993 L11.3039993,12.0719993 L11.3039993,12.0719993 L11.3039993,11.9639993 L11.3039993,11.9639993 C11.3165485,11.864393 11.3165485,11.7636056 11.3039993,11.6639993 C11.2980701,11.6201991 11.2980701,11.5757996 11.3039993,11.5319993 C11.3002877,11.4920854 11.3002877,11.4519132 11.3039993,11.4119993 L11.3039993,11.4119993 C11.2524743,11.2844781 11.1794102,11.1667638 11.0879993,11.0639993 L8.3999995,8.80799948 C8.2324117,8.6464694 8.00876039,8.55614868 7.77599954,8.55599949 C7.57027115,8.55656125 7.37427578,8.6436703 7.23599957,8.79599948 C7.08502608,8.9448392 7.00002836,9.14799411 7.00002836,9.35999944 C7.00002836,9.57200477 7.08502608,9.77515968 7.23599957,9.92399941 L8.4359995,10.9319993 L5.42399968,10.9319993 C3.96037717,10.87133 2.52681375,11.3591695 1.40399992,12.2999993 C0.515665597,13.0945267 0.00551190446,14.2282016 0,15.4199991 C0,17.6399989 1.85999989,19.8959988 5.42399968,19.8959988 L10.5119994,19.8959988 C10.9759185,19.8959988 11.3519993,19.519918 11.3519993,19.0559995 C11.3519993,18.5920797 10.9759185,18.2159989 10.5119994,18.2159989 Z" id="Path"></path>
        </g>
    </g>
</svg>