<?xml version="1.0" encoding="UTF-8"?>
<svg width="23px" height="19px" viewBox="0 0 23 19" version="1.1" xmlns="http://www.w3.org/2000/svg" xmlns:xlink="http://www.w3.org/1999/xlink">
    <title>Rollover</title>
    <g id="Page-1" stroke="none" stroke-width="1" fill="none" fill-rule="evenodd">
        <g id="Rollover" transform="translate(1.000000, 1.000000)" fill="#707070" fill-rule="nonzero" stroke="#707070" stroke-width="0.2">
            <path d="M3.40105263,1.76210526 C4.92631579,0.236842105 7.75894737,0.407368421 10.6105263,2.17894737 C10.8301103,2.32719591 10.9034859,2.61662181 10.7810526,2.85157895 C10.6328041,3.07116293 10.3433782,3.14453852 10.1084211,3.02210526 C7.68315789,1.52526316 5.23894737,1.30736842 4.08315789,2.46315789 C2.46315789,4.08315789 3.57157895,7.88210526 6.48,10.7905263 C9.38842105,13.6989474 13.1968421,14.7789474 14.7978947,13.1778947 C15.2776791,12.6634839 15.5450541,11.9865852 15.5463158,11.2831579 C15.5708531,11.0192666 15.7928676,10.817809 16.0578947,10.8189474 C16.1861171,10.8262673 16.306149,10.8843366 16.391474,10.9803272 C16.476799,11.0763179 16.5203951,11.2023301 16.5126316,11.3305263 C16.5017616,12.2648184 16.1280685,13.1582845 15.4705263,13.8221053 L13.2631579,16.1052632 C12.5016938,16.8323705 11.472053,17.2099055 10.4210526,17.1473684 C8.31789474,17.1473684 5.73157895,15.9347368 3.50526316,13.7084211 C0.142105263,10.3263158 -0.9,6.07263158 1.12736842,4.01684211 L3.40105263,1.76210526 Z M1.82842105,4.73684211 C1.40038999,5.19104896 1.14554989,5.78120499 1.10842105,6.40421053 L2.38736842,5.10631579 C2.36841916,4.79081058 2.36841916,4.47445257 2.38736842,4.15894737 L1.82842105,4.73684211 Z M2.43473684,10.8284211 L3.98842105,9.26526316 C3.76875249,8.92841499 3.56638502,8.58059591 3.38210526,8.22315789 L1.89473684,9.74842105 C2.05264768,10.1129196 2.23299326,10.4672829 2.43473684,10.8094737 L2.43473684,10.8284211 Z M3.88421053,12.7231579 L5.45684211,11.1505263 C5.13937084,10.8146815 4.84201106,10.4603805 4.56631579,10.0894737 L2.99368421,11.6336842 C3.27175987,12.0027037 3.56901078,12.356875 3.88421053,12.6947368 L3.88421053,12.7231579 Z M5.60842105,14.2105263 L7.18105263,12.6378947 C6.84,12.3726316 6.48,12.0789474 6.13894737,11.7663158 L4.56631579,13.3768421 C4.90736842,13.6894737 5.26736842,13.9831579 5.60842105,14.2105263 Z M7.50315789,15.3663158 L9.02842105,13.8410526 C8.68736842,13.6515789 8.32736842,13.4526316 7.98631579,13.2347368 L6.42315789,14.8263158 C6.79263158,15.0442105 7.13368421,15.2336842 7.49368421,15.4042105 L7.50315789,15.3663158 Z M9.53052632,16.0484211 L10.9610526,14.6178947 C10.62,14.5231579 10.2789474,14.4 9.94736842,14.2768421 L8.43157895,15.8210526 C8.78780841,15.9405982 9.15182133,16.035558 9.52105263,16.1052632 L9.53052632,16.0484211 Z M2.94631579,7.27578947 C2.81005523,6.9459151 2.69611437,6.60725755 2.60526316,6.26210526 L1.17473684,7.69263158 C1.2452989,8.05331856 1.34348288,8.40804776 1.46842105,8.75368421 L2.94631579,7.27578947 Z M12.7136842,14.9021053 C12.5242105,14.9021053 12.3252632,14.9021053 12.1073684,14.9021053 L10.8094737,16.2094737 C11.4516384,16.1869294 12.0626193,15.9270093 12.5242105,15.48 L13.0831579,14.9305263 L12.7136842,14.9021053 Z" id="Shape"></path>
            <path d="M17.6494737,9.59684211 C17.6494737,9.86368284 17.4331565,10.08 17.1663158,10.08 L14.8168421,10.08 C14.5500014,10.08 14.3336842,9.86368284 14.3336842,9.59684211 L14.3336842,6.75473684 L11.4915789,6.75473684 C11.2247382,6.75473684 11.0084211,6.53841968 11.0084211,6.27157895 L11.0084211,3.91263158 C11.0084211,3.64579084 11.2247382,3.42947368 11.4915789,3.42947368 L14.3336842,3.42947368 L14.3336842,0.587368421 C14.3311391,0.457593494 14.3809173,0.332252483 14.4718043,0.239583383 C14.5626913,0.146914282 14.6870422,0.0947368332 14.8168421,0.0947368332 L17.1663158,0.0947368332 C17.4331565,0.0947368332 17.6494737,0.311054 17.6494737,0.577894737 L17.6494737,3.42 L20.4915789,3.42 C20.6197204,3.42 20.7426135,3.47090399 20.8332232,3.56151367 C20.9238329,3.65212335 20.9747368,3.77501645 20.9747368,3.90315789 L20.9747368,6.26210526 C20.9747368,6.3902467 20.9238329,6.51313981 20.8332232,6.60374949 C20.7426135,6.69435917 20.6197204,6.74526316 20.4915789,6.74526316 L17.6494737,6.74526316 L17.6494737,9.58736842 L17.6494737,9.59684211 Z M19.9989474,5.80736842 L19.9989474,4.39578947 L17.1568421,4.39578947 C17.0270672,4.39833457 16.9017262,4.34855637 16.8090571,4.25766937 C16.716388,4.16678237 16.6641856,4.04243146 16.6642105,3.91263158 L16.6642105,1.07052632 L15.2810526,1.07052632 L15.2810526,3.91263158 C15.2810526,4.17947232 15.0647355,4.39578947 14.7978947,4.39578947 L11.9557895,4.39578947 L11.9557895,5.77894737 L14.7978947,5.77894737 C14.9276697,5.77640227 15.0530107,5.82618047 15.1456798,5.91706747 C15.2383489,6.00795448 15.2905513,6.13230538 15.2905263,6.26210526 L15.2905263,9.10421053 L16.6642105,9.10421053 L16.6642105,6.26210526 C16.6642105,5.99526453 16.8805277,5.77894737 17.1473684,5.77894737 L19.9989474,5.80736842 Z" id="Shape"></path>
        </g>
    </g>
</svg>