<svg width="24" height="24" viewBox="0 0 24 24" fill="none" xmlns="http://www.w3.org/2000/svg">
<path d="M5.06881 8.28113C5.86737 6.82792 7.10223 5.66226 8.59904 4.94875C10.0958 4.23524 11.779 4.00992 13.4107 4.30461C15.0425 4.5993 16.5405 5.39912 17.6931 6.59112C18.8458 7.78311 19.5949 9.30707 19.8347 10.9478" stroke="#707070" stroke-width="2" stroke-miterlimit="10"/>
<path d="M8.49378 8.36722L4.89709 8.27673L4.98758 4.68005" stroke="#707070" stroke-width="2" stroke-miterlimit="10"/>
<path d="M19.2628 15.8277C18.4465 17.2809 17.1842 18.4466 15.6542 19.1601C14.1241 19.8736 12.4036 20.0989 10.7356 19.8043C9.06763 19.5096 7.53639 18.7098 6.35812 17.5178C5.17985 16.3258 4.41409 14.8018 4.16897 13.1611" stroke="#707070" stroke-width="2" stroke-miterlimit="10"/>
<path d="M16.3192 15.5L19.4805 15.8329L19.9124 19" stroke="#707070" stroke-width="2" stroke-miterlimit="10"/>
<path d="M12 12.4375L10.4375 14L10 13.5625L11.5625 12L10 10.4375L10.4375 10L12 11.5625L13.5625 10L14 10.4375L12.4375 12L14 13.5625L13.5625 14L12 12.4375Z" fill="#707070" stroke="#707070" stroke-width="0.5"/>
</svg>
