<svg xmlns="http://www.w3.org/2000/svg" width="17.999" height="18" viewBox="0 0 17.999 18">
  <g id="Group_20401" data-name="Group 20401" transform="translate(-3.001 -3)">
    <g id="Group_20402" data-name="Group 20402">
      <g id="Group_20401-2" data-name="Group 20401">
        <path id="Path_9013" data-name="Path 9013" d="M21,10.12H14.22L16.96,7.3a7.039,7.039,0,0,0-9.88-.1,6.875,6.875,0,0,0,0,9.79,7.02,7.02,0,0,0,9.88,0A6.513,6.513,0,0,0,19,12.1h2a9.341,9.341,0,0,1-2.64,6.29,9.054,9.054,0,0,1-12.72,0A8.84,8.84,0,0,1,5.62,5.81a8.987,8.987,0,0,1,12.65,0L21,3ZM12.5,8v4.25L16,14.33l-.72,1.21L11,13V8Z" fill="#696971"/>
      </g>
    </g>
  </g>
</svg>
