<svg width="24" height="24" viewBox="0 0 24 24" fill="none" xmlns="http://www.w3.org/2000/svg">
<g clip-path="url(#clip0_1254_57590)">
<circle cx="12" cy="12" r="12" fill="#D60040"/>
<path d="M11.25 14.25H12.75V15.75H11.25V14.25ZM11.25 8.25H12.75V12.75H11.25V8.25ZM11.9925 4.5C7.8525 4.5 4.5 7.86 4.5 12C4.5 16.14 7.8525 19.5 11.9925 19.5C16.14 19.5 19.5 16.14 19.5 12C19.5 7.86 16.14 4.5 11.9925 4.5ZM12 18C8.685 18 6 15.315 6 12C6 8.685 8.685 6 12 6C15.315 6 18 8.685 18 12C18 15.315 15.315 18 12 18Z" fill="white"/>
</g>
<defs>
<clipPath id="clip0_1254_57590">
<rect width="24" height="24" fill="white"/>
</clipPath>
</defs>
</svg>
