<svg xmlns="http://www.w3.org/2000/svg" width="11.251" height="18" viewBox="0 0 11.251 18">
  <g id="noun_question_mark_433487" data-name="noun_question mark_433487" transform="translate(-21.872 -5)">
    <g id="Group_16167" data-name="Group 16167" transform="translate(21.872 5)">
      <rect id="Rectangle_3197" data-name="Rectangle 3197" width="2.343" height="2.343" transform="translate(4.453 15.657)" fill="#707070"/>
      <path id="Path_8763" data-name="Path 8763" d="M32.815,8.076a4.306,4.306,0,0,0-.977-1.54A5.069,5.069,0,0,0,30.1,5.424,6.879,6.879,0,0,0,27.545,5a6.035,6.035,0,0,0-2.3.424,5.35,5.35,0,0,0-1.806,1.188,4.715,4.715,0,0,0-1.16,1.718,5.059,5.059,0,0,0-.4,2.218h2.3a3.892,3.892,0,0,1,.91-2.671,3,3,0,0,1,2.468-1.028,3.1,3.1,0,0,1,2.262.758,2.823,2.823,0,0,1,.73,2.066,2.764,2.764,0,0,1-.684,1.837,17.806,17.806,0,0,1-1.466,1.556,14.472,14.472,0,0,0-1.4,1.569,2.913,2.913,0,0,0-.613,1.907v1.77h2.25V17.36a3.153,3.153,0,0,1,.31-1.492,4.587,4.587,0,0,1,.833-1.171,12.917,12.917,0,0,1,1.088-1.029,12,12,0,0,0,1.092-1.051,4.96,4.96,0,0,0,.84-1.247,3.633,3.633,0,0,0,.339-1.628A4.8,4.8,0,0,0,32.815,8.076Z" transform="translate(-21.872 -5)" fill="#707070"/>
    </g>
  </g>
</svg>
